<?xml version="1.0" encoding="utf-8" standalone="no"?>
<!DOCTYPE svg PUBLIC "-//W3C//DTD SVG 1.1//EN"
  "http://www.w3.org/Graphics/SVG/1.1/DTD/svg11.dtd">
<svg xmlns:xlink="http://www.w3.org/1999/xlink" width="1276.21425pt" height="367.90875pt" viewBox="0 0 1276.21425 367.90875" xmlns="http://www.w3.org/2000/svg" version="1.1">
 <metadata>
  <rdf:RDF xmlns:dc="http://purl.org/dc/elements/1.1/" xmlns:cc="http://creativecommons.org/ns#" xmlns:rdf="http://www.w3.org/1999/02/22-rdf-syntax-ns#">
   <cc:Work>
    <dc:type rdf:resource="http://purl.org/dc/dcmitype/StillImage"/>
    <dc:date>2025-05-16T11:16:11.698237</dc:date>
    <dc:format>image/svg+xml</dc:format>
    <dc:creator>
     <cc:Agent>
      <dc:title>Matplotlib v3.10.3, https://matplotlib.org/</dc:title>
     </cc:Agent>
    </dc:creator>
   </cc:Work>
  </rdf:RDF>
 </metadata>
 <defs>
  <style type="text/css">*{stroke-linejoin: round; stroke-linecap: butt}</style>
 </defs>
 <g id="figure_1">
  <g id="patch_1">
   <path d="M 0 367.90875 
L 1276.21425 367.90875 
L 1276.21425 0 
L 0 0 
z
" style="fill: #ffffff"/>
  </g>
  <g id="axes_1">
   <g id="patch_2">
    <path d="M 152.36625 331.148068 
C 187.364922 331.148068 220.934851 317.242948 245.68265 292.49515 
C 270.430448 267.747351 284.335568 234.177422 284.335568 199.17875 
C 284.335568 164.180078 270.430448 130.610149 245.68265 105.86235 
C 220.934851 81.114552 187.364922 67.209432 152.36625 67.209432 
C 117.367578 67.209432 83.797649 81.114552 59.04985 105.86235 
C 34.302052 130.610149 20.396932 164.180078 20.396932 199.17875 
C 20.396932 234.177422 34.302052 267.747351 59.04985 292.49515 
C 83.797649 317.242948 117.367578 331.148068 152.36625 331.148068 
L 152.36625 331.148068 
z
" clip-path="url(#pbbcd2d30d9)" style="fill: none; stroke: #000000; stroke-width: 2; stroke-linejoin: miter"/>
   </g>
   <g id="line2d_1">
    <path d="M 22.163435 199.17875 
L 22.347838 199.17875 
L 22.551338 199.17875 
L 22.775889 199.17875 
L 23.023589 199.17875 
L 23.296806 199.17875 
L 23.598096 199.17875 
L 23.930261 199.17875 
L 24.296368 199.17875 
L 24.69979 199.17875 
L 25.144195 199.17875 
L 25.633554 199.17875 
L 26.17224 199.17875 
L 26.764989 199.17875 
L 27.416914 199.17875 
L 28.133568 199.17875 
L 28.920961 199.17875 
L 29.785535 199.17875 
L 30.734275 199.17875 
L 31.774598 199.17875 
L 32.914458 199.17875 
L 34.162271 199.17875 
L 35.526995 199.17875 
L 37.018032 199.17875 
L 38.645237 199.17875 
L 40.418843 199.17875 
L 42.349423 199.17875 
L 44.4478 199.17875 
L 46.724948 199.17875 
L 49.191799 199.17875 
L 51.859194 199.17875 
L 54.737585 199.17875 
L 57.836909 199.17875 
L 61.166281 199.17875 
L 64.733773 199.17875 
L 68.546069 199.17875 
L 72.608244 199.17875 
L 76.923358 199.17875 
L 81.492189 199.17875 
L 86.312944 199.17875 
L 91.380971 199.17875 
L 96.688524 199.17875 
L 102.224647 199.17875 
L 107.974996 199.17875 
L 113.921924 199.17875 
L 120.044502 199.17875 
L 126.318767 199.17875 
L 132.717993 199.17875 
L 139.213135 199.17875 
L 145.773283 199.17875 
L 152.36625 199.17875 
L 158.959227 199.17875 
L 165.519368 199.17875 
L 172.014517 199.17875 
L 178.413741 199.17875 
L 184.687998 199.17875 
L 190.810588 199.17875 
L 196.757492 199.17875 
L 202.507853 199.17875 
L 208.043968 199.17875 
L 213.351541 199.17875 
L 218.419579 199.17875 
L 223.240318 199.17875 
L 227.809157 199.17875 
L 232.124263 199.17875 
L 236.186415 199.17875 
L 239.998696 199.17875 
L 243.566226 199.17875 
L 246.895583 199.17875 
L 249.994922 199.17875 
L 252.873267 199.17875 
L 255.540677 199.17875 
L 258.007466 199.17875 
L 260.284708 199.17875 
L 262.383014 199.17875 
L 264.313743 199.17875 
L 266.087373 199.17875 
L 267.714484 199.17875 
L 269.205489 199.17875 
L 270.570237 199.17875 
L 271.81794 199.17875 
L 272.957776 199.17875 
L 273.99828 199.17875 
L 274.947146 199.17875 
L 275.811641 199.17875 
L 276.598987 199.17875 
L 277.315358 199.17875 
L 277.967637 199.17875 
L 278.560598 199.17875 
L 279.09923 199.17875 
L 279.588635 199.17875 
L 280.033119 199.17875 
L 280.435149 199.17875 
L 280.803136 199.17875 
L 281.134828 199.17875 
L 281.435844 199.17875 
L 281.707936 199.17875 
L 281.956879 199.17875 
L 282.180532 199.17875 
L 282.384725 199.17875 
" clip-path="url(#pbbcd2d30d9)" style="fill: none; stroke: #1f77b4; stroke-opacity: 0.8; stroke-width: 3; stroke-linecap: square"/>
   </g>
   <g id="line2d_2">
    <path d="M 252.327376 114.135464 
L 252.269034 114.184485 
L 252.204485 114.238516 
L 252.133141 114.298132 
L 252.054331 114.363908 
L 251.967231 114.436479 
L 251.870999 114.516523 
L 251.764564 114.604678 
L 251.646999 114.701909 
L 251.517069 114.809052 
L 251.373507 114.927073 
L 251.214819 115.057011 
L 251.039446 115.200015 
L 250.845652 115.35735 
L 250.631501 115.530386 
L 250.394868 115.72057 
L 250.133411 115.929506 
L 249.844462 116.158784 
L 249.525213 116.410306 
L 249.172542 116.686001 
L 248.782884 116.987843 
L 248.352536 117.31812 
L 247.877132 117.678948 
L 247.352164 118.072759 
L 246.772488 118.501958 
L 246.132559 118.968977 
L 245.426272 119.476278 
L 244.647036 120.026323 
L 243.787457 120.621306 
L 242.839834 121.263509 
L 241.79553 121.954653 
L 240.645437 122.696266 
L 239.379714 123.48933 
L 237.987914 124.334137 
L 236.458979 125.230104 
L 234.781354 126.175729 
L 232.943057 127.168094 
L 230.93193 128.202959 
L 228.735778 129.274243 
L 226.342671 130.373947 
L 223.741366 131.491892 
L 220.921725 132.615595 
L 217.875155 133.73004 
L 214.595236 134.817748 
L 211.078504 135.858886 
L 207.324868 136.831456 
L 203.338466 137.711746 
L 199.128166 138.474931 
L 194.707912 139.095888 
L 190.097273 139.550129 
L 185.32124 139.814965 
L 180.410034 139.870506 
L 175.398527 139.700939 
L 170.325295 139.295409 
L 165.231445 138.64886 
L 160.159186 137.762446 
L 155.150381 136.643644 
L 150.245004 135.306002 
L 145.479766 133.76852 
L 140.886942 132.054664 
L 136.493688 130.191275 
L 132.32128 128.20734 
L 128.385208 126.132655 
L 124.695151 123.996773 
L 121.255568 121.827924 
L 118.065992 119.652303 
L 115.12212 117.493342 
L 112.416269 115.371517 
L 109.938259 113.304092 
L 107.676124 111.305125 
L 105.616668 109.385628 
L 103.746074 107.553759 
L 102.050341 105.81514 
L 100.515573 104.173124 
L 99.128312 102.629181 
L 97.875694 101.183145 
L 96.745552 99.833602 
L 95.726542 98.578073 
L 94.808086 97.413341 
L 93.98056 96.335528 
L 93.235101 95.340426 
L 92.563574 94.423535 
L 91.958704 93.580262 
L 91.413784 92.805951 
L 90.922868 92.095982 
L 90.480516 91.445906 
L 90.08184 90.851356 
L 89.722479 90.308131 
L 89.398491 89.812314 
L 89.10634 89.360138 
L 88.842806 88.948094 
L 88.605069 88.572863 
L 88.390524 88.231385 
L 88.196922 87.920757 
L 88.022144 87.638392 
L 87.864392 87.38178 
L 87.7219 87.148719 
L 87.593224 86.937108 
L 87.476961 86.745021 
L 87.371973 86.570718 
" clip-path="url(#pbbcd2d30d9)" style="fill: none; stroke: #ff7f0e; stroke-opacity: 0.8; stroke-width: 3; stroke-linecap: square"/>
   </g>
   <g id="line2d_3">
    <path d="M 245.824212 291.415101 
L 245.774476 291.366828 
L 245.719477 291.313591 
L 245.65872 291.2548 
L 245.591466 291.190016 
L 245.517164 291.11853 
L 245.435003 291.039689 
L 245.344151 290.952786 
L 245.243726 290.85697 
L 245.132666 290.751393 
L 245.009808 290.63515 
L 244.873946 290.507139 
L 244.72369 290.366243 
L 244.557521 290.211212 
L 244.373678 290.040764 
L 244.170342 289.85342 
L 243.94539 289.647654 
L 243.696542 289.421798 
L 243.421154 289.174114 
L 243.116528 288.902604 
L 242.779416 288.605395 
L 242.406363 288.280349 
L 241.993564 287.925263 
L 241.536795 287.5378 
L 241.031256 287.115759 
L 240.471945 286.656676 
L 239.852963 286.158382 
L 239.168221 285.618484 
L 238.41075 285.034994 
L 237.573172 284.405943 
L 236.647212 283.729862 
L 235.624068 283.00564 
L 234.494127 282.232894 
L 233.247266 281.411866 
L 231.872513 280.543957 
L 230.358531 279.631684 
L 228.693546 278.679042 
L 226.865491 277.691775 
L 224.862332 276.677684 
L 222.672552 275.646753 
L 220.285336 274.611542 
L 217.691283 273.587178 
L 214.882966 272.591581 
L 211.855643 271.645381 
L 208.60805 270.771596 
L 205.143095 269.995318 
L 201.468587 269.343023 
L 197.597953 268.841583 
L 193.550479 268.51726 
L 189.351349 268.394409 
L 185.031573 268.494016 
L 180.627151 268.832466 
L 176.17802 269.420252 
L 171.726667 270.261118 
L 167.316391 271.351571 
L 162.989606 272.68082 
L 158.785879 274.231237 
L 154.740657 275.979295 
L 150.883824 277.896786 
L 147.239009 279.952309 
L 143.82326 282.112843 
L 140.646973 284.345257 
L 137.714454 286.617535 
L 135.024576 288.900024 
L 132.571634 291.16597 
L 130.346278 293.392264 
L 128.3365 295.55946 
L 126.528407 297.651946 
L 124.907094 299.657654 
L 123.457175 301.567814 
L 122.163403 303.376628 
L 121.01091 305.080825 
L 119.985611 306.679256 
L 119.074238 308.172543 
L 118.264651 309.562745 
L 117.545689 310.852924 
L 116.907211 312.046988 
L 116.340116 313.149422 
L 115.836245 314.165046 
L 115.388317 315.098896 
L 114.98992 315.956091 
L 114.63529 316.741746 
L 114.319447 317.46087 
L 114.037857 318.118293 
L 113.786645 318.71868 
L 113.562346 319.266452 
L 113.361921 319.765792 
L 113.182659 320.220658 
L 113.022244 320.634716 
L 112.878486 321.011387 
L 112.749684 321.353879 
L 112.634129 321.665136 
L 112.530392 321.947895 
L 112.437212 322.204649 
L 112.353514 322.437733 
L 112.278213 322.649202 
L 112.210467 322.841077 
L 112.149482 323.015089 
L 112.094613 323.172888 
L 112.045144 323.315931 
" clip-path="url(#pbbcd2d30d9)" style="fill: none; stroke: #d62728; stroke-opacity: 0.8; stroke-width: 3; stroke-linecap: square"/>
   </g>
   <g id="line2d_4">
    <path d="M 230.276677 304.957298 
L 230.240132 304.906672 
L 230.199795 304.85069 
L 230.155313 304.78884 
L 230.106261 304.720437 
L 230.052206 304.644845 
L 229.992613 304.561261 
L 229.926964 304.468868 
L 229.854667 304.366712 
L 229.775048 304.253812 
L 229.687468 304.128915 
L 229.591086 303.990883 
L 229.485163 303.83822 
L 229.368754 303.669455 
L 229.240892 303.482835 
L 229.100634 303.276447 
L 228.946823 303.048231 
L 228.778325 302.795891 
L 228.593907 302.516821 
L 228.392294 302.208223 
L 228.172173 301.866949 
L 227.932142 301.489571 
L 227.67085 301.072241 
L 227.386856 300.610815 
L 227.078864 300.100635 
L 226.745566 299.536644 
L 226.385745 298.913304 
L 225.998518 298.224456 
L 225.583092 297.463508 
L 225.139096 296.62324 
L 224.66661 295.695841 
L 224.166357 294.672893 
L 223.639745 293.545438 
L 223.089095 292.303997 
L 222.517938 290.938596 
L 221.931073 289.439001 
L 221.334894 287.794806 
L 220.737638 285.995698 
L 220.149553 284.031782 
L 219.583155 281.894035 
L 219.053334 279.574758 
L 218.577434 277.068144 
L 218.175144 274.371047 
L 217.86837 271.483617 
L 217.680637 268.41011 
L 217.636611 265.159543 
L 217.761015 261.746339 
L 218.077586 258.190631 
L 218.607741 254.518349 
L 219.369137 250.760973 
L 220.3743 246.954698 
L 221.629436 243.13931 
L 223.133451 239.356656 
L 224.877631 235.648753 
L 226.845645 232.055884 
L 229.014195 228.614774 
L 231.354262 225.356915 
L 233.832464 222.307442 
L 236.412979 219.484411 
L 239.059348 216.898614 
L 241.735694 214.554009 
L 244.40876 212.448256 
L 247.0486 210.573802 
L 249.629162 208.919015 
L 252.129011 207.469204 
L 254.531007 206.207825 
L 256.822479 205.117294 
L 258.994458 204.179891 
L 261.041793 203.378236 
L 262.961769 202.695899 
L 264.754797 202.117488 
L 266.422543 201.629038 
L 267.968539 201.217927 
L 269.397631 200.872919 
L 270.715247 200.584149 
L 271.927182 200.343034 
L 273.039944 200.14211 
L 274.059973 199.974985 
L 274.993414 199.836218 
L 275.846299 199.721176 
L 276.624921 199.625915 
L 277.33474 199.547142 
L 277.98211 199.482029 
L 278.571406 199.428289 
L 279.107284 199.383978 
L 279.594637 199.347457 
L 280.037594 199.317377 
L 280.438476 199.292661 
L 280.805613 199.272243 
L 281.136669 199.25551 
L 281.437205 199.241752 
L 281.708959 199.230466 
L 281.957634 199.221155 
L 282.181099 199.213543 
L 282.38515 199.207273 
L 282.567696 199.202159 
L 282.734612 199.197944 
L 282.885828 199.194486 
L 283.025276 199.191626 
L 283.148914 199.189306 
" clip-path="url(#pbbcd2d30d9)" style="fill: none; stroke: #2ca02c; stroke-opacity: 0.8; stroke-width: 3; stroke-linecap: square"/>
   </g>
   <g id="text_1">
    <!-- a)  Geodesics in $\mathcal{M}^{[1,2]}$ -->
    <g style="fill: #373737" transform="translate(16.64625 27.64875) scale(0.24 -0.24)">
     <defs>
      <path id="DejaVuSans-61" d="M 2194 1759 
Q 1497 1759 1228 1600 
Q 959 1441 959 1056 
Q 959 750 1161 570 
Q 1363 391 1709 391 
Q 2188 391 2477 730 
Q 2766 1069 2766 1631 
L 2766 1759 
L 2194 1759 
z
M 3341 1997 
L 3341 0 
L 2766 0 
L 2766 531 
Q 2569 213 2275 61 
Q 1981 -91 1556 -91 
Q 1019 -91 701 211 
Q 384 513 384 1019 
Q 384 1609 779 1909 
Q 1175 2209 1959 2209 
L 2766 2209 
L 2766 2266 
Q 2766 2663 2505 2880 
Q 2244 3097 1772 3097 
Q 1472 3097 1187 3025 
Q 903 2953 641 2809 
L 641 3341 
Q 956 3463 1253 3523 
Q 1550 3584 1831 3584 
Q 2591 3584 2966 3190 
Q 3341 2797 3341 1997 
z
" transform="scale(0.015625)"/>
      <path id="DejaVuSans-29" d="M 513 4856 
L 1013 4856 
Q 1481 4119 1714 3412 
Q 1947 2706 1947 2009 
Q 1947 1309 1714 600 
Q 1481 -109 1013 -844 
L 513 -844 
Q 928 -128 1133 580 
Q 1338 1288 1338 2009 
Q 1338 2731 1133 3434 
Q 928 4138 513 4856 
z
" transform="scale(0.015625)"/>
      <path id="DejaVuSans-20" transform="scale(0.015625)"/>
      <path id="DejaVuSans-47" d="M 3809 666 
L 3809 1919 
L 2778 1919 
L 2778 2438 
L 4434 2438 
L 4434 434 
Q 4069 175 3628 42 
Q 3188 -91 2688 -91 
Q 1594 -91 976 548 
Q 359 1188 359 2328 
Q 359 3472 976 4111 
Q 1594 4750 2688 4750 
Q 3144 4750 3555 4637 
Q 3966 4525 4313 4306 
L 4313 3634 
Q 3963 3931 3569 4081 
Q 3175 4231 2741 4231 
Q 1884 4231 1454 3753 
Q 1025 3275 1025 2328 
Q 1025 1384 1454 906 
Q 1884 428 2741 428 
Q 3075 428 3337 486 
Q 3600 544 3809 666 
z
" transform="scale(0.015625)"/>
      <path id="DejaVuSans-65" d="M 3597 1894 
L 3597 1613 
L 953 1613 
Q 991 1019 1311 708 
Q 1631 397 2203 397 
Q 2534 397 2845 478 
Q 3156 559 3463 722 
L 3463 178 
Q 3153 47 2828 -22 
Q 2503 -91 2169 -91 
Q 1331 -91 842 396 
Q 353 884 353 1716 
Q 353 2575 817 3079 
Q 1281 3584 2069 3584 
Q 2775 3584 3186 3129 
Q 3597 2675 3597 1894 
z
M 3022 2063 
Q 3016 2534 2758 2815 
Q 2500 3097 2075 3097 
Q 1594 3097 1305 2825 
Q 1016 2553 972 2059 
L 3022 2063 
z
" transform="scale(0.015625)"/>
      <path id="DejaVuSans-6f" d="M 1959 3097 
Q 1497 3097 1228 2736 
Q 959 2375 959 1747 
Q 959 1119 1226 758 
Q 1494 397 1959 397 
Q 2419 397 2687 759 
Q 2956 1122 2956 1747 
Q 2956 2369 2687 2733 
Q 2419 3097 1959 3097 
z
M 1959 3584 
Q 2709 3584 3137 3096 
Q 3566 2609 3566 1747 
Q 3566 888 3137 398 
Q 2709 -91 1959 -91 
Q 1206 -91 779 398 
Q 353 888 353 1747 
Q 353 2609 779 3096 
Q 1206 3584 1959 3584 
z
" transform="scale(0.015625)"/>
      <path id="DejaVuSans-64" d="M 2906 2969 
L 2906 4863 
L 3481 4863 
L 3481 0 
L 2906 0 
L 2906 525 
Q 2725 213 2448 61 
Q 2172 -91 1784 -91 
Q 1150 -91 751 415 
Q 353 922 353 1747 
Q 353 2572 751 3078 
Q 1150 3584 1784 3584 
Q 2172 3584 2448 3432 
Q 2725 3281 2906 2969 
z
M 947 1747 
Q 947 1113 1208 752 
Q 1469 391 1925 391 
Q 2381 391 2643 752 
Q 2906 1113 2906 1747 
Q 2906 2381 2643 2742 
Q 2381 3103 1925 3103 
Q 1469 3103 1208 2742 
Q 947 2381 947 1747 
z
" transform="scale(0.015625)"/>
      <path id="DejaVuSans-73" d="M 2834 3397 
L 2834 2853 
Q 2591 2978 2328 3040 
Q 2066 3103 1784 3103 
Q 1356 3103 1142 2972 
Q 928 2841 928 2578 
Q 928 2378 1081 2264 
Q 1234 2150 1697 2047 
L 1894 2003 
Q 2506 1872 2764 1633 
Q 3022 1394 3022 966 
Q 3022 478 2636 193 
Q 2250 -91 1575 -91 
Q 1294 -91 989 -36 
Q 684 19 347 128 
L 347 722 
Q 666 556 975 473 
Q 1284 391 1588 391 
Q 1994 391 2212 530 
Q 2431 669 2431 922 
Q 2431 1156 2273 1281 
Q 2116 1406 1581 1522 
L 1381 1569 
Q 847 1681 609 1914 
Q 372 2147 372 2553 
Q 372 3047 722 3315 
Q 1072 3584 1716 3584 
Q 2034 3584 2315 3537 
Q 2597 3491 2834 3397 
z
" transform="scale(0.015625)"/>
      <path id="DejaVuSans-69" d="M 603 3500 
L 1178 3500 
L 1178 0 
L 603 0 
L 603 3500 
z
M 603 4863 
L 1178 4863 
L 1178 4134 
L 603 4134 
L 603 4863 
z
" transform="scale(0.015625)"/>
      <path id="DejaVuSans-63" d="M 3122 3366 
L 3122 2828 
Q 2878 2963 2633 3030 
Q 2388 3097 2138 3097 
Q 1578 3097 1268 2742 
Q 959 2388 959 1747 
Q 959 1106 1268 751 
Q 1578 397 2138 397 
Q 2388 397 2633 464 
Q 2878 531 3122 666 
L 3122 134 
Q 2881 22 2623 -34 
Q 2366 -91 2075 -91 
Q 1284 -91 818 406 
Q 353 903 353 1747 
Q 353 2603 823 3093 
Q 1294 3584 2113 3584 
Q 2378 3584 2631 3529 
Q 2884 3475 3122 3366 
z
" transform="scale(0.015625)"/>
      <path id="DejaVuSans-6e" d="M 3513 2113 
L 3513 0 
L 2938 0 
L 2938 2094 
Q 2938 2591 2744 2837 
Q 2550 3084 2163 3084 
Q 1697 3084 1428 2787 
Q 1159 2491 1159 1978 
L 1159 0 
L 581 0 
L 581 3500 
L 1159 3500 
L 1159 2956 
Q 1366 3272 1645 3428 
Q 1925 3584 2291 3584 
Q 2894 3584 3203 3211 
Q 3513 2838 3513 2113 
z
" transform="scale(0.015625)"/>
      <path id="STIXNonUnicode-Italic-e239" d="M 7123 346 
L 7219 224 
Q 6912 -205 6310 -205 
Q 6208 -205 6096 -169 
Q 5984 -134 5865 -12 
Q 5747 109 5747 307 
Q 5747 384 5779 653 
L 6061 3181 
L 6042 3181 
L 3405 51 
L 3309 51 
Q 2682 1382 2413 2650 
L 2406 2650 
Q 2400 2611 2345 2390 
Q 2291 2170 2265 2061 
Q 2240 1952 2179 1725 
Q 2118 1498 2060 1338 
Q 2003 1178 1926 976 
Q 1850 774 1760 592 
Q 1670 410 1568 250 
Q 1229 -288 813 -288 
Q 576 -288 416 -131 
Q 256 26 256 250 
Q 256 422 345 528 
Q 435 634 595 634 
Q 698 634 768 576 
Q 838 518 867 451 
Q 896 384 947 326 
Q 998 269 1062 269 
Q 1274 269 1446 570 
Q 1555 762 1673 1088 
Q 1792 1414 1881 1731 
Q 1971 2048 2076 2483 
Q 2182 2918 2236 3187 
Q 2291 3456 2371 3840 
Q 2451 4224 2464 4294 
L 2656 4294 
Q 2931 3136 3168 2329 
Q 3405 1523 3738 838 
L 6662 4294 
L 6835 4294 
L 6445 730 
Q 6432 614 6432 544 
Q 6432 173 6714 173 
Q 6950 173 7123 346 
z
" transform="scale(0.015625)"/>
      <path id="DejaVuSans-5b" d="M 550 4863 
L 1875 4863 
L 1875 4416 
L 1125 4416 
L 1125 -397 
L 1875 -397 
L 1875 -844 
L 550 -844 
L 550 4863 
z
" transform="scale(0.015625)"/>
      <path id="DejaVuSans-31" d="M 794 531 
L 1825 531 
L 1825 4091 
L 703 3866 
L 703 4441 
L 1819 4666 
L 2450 4666 
L 2450 531 
L 3481 531 
L 3481 0 
L 794 0 
L 794 531 
z
" transform="scale(0.015625)"/>
      <path id="DejaVuSans-2c" d="M 750 794 
L 1409 794 
L 1409 256 
L 897 -744 
L 494 -744 
L 750 256 
L 750 794 
z
" transform="scale(0.015625)"/>
      <path id="DejaVuSans-32" d="M 1228 531 
L 3431 531 
L 3431 0 
L 469 0 
L 469 531 
Q 828 903 1448 1529 
Q 2069 2156 2228 2338 
Q 2531 2678 2651 2914 
Q 2772 3150 2772 3378 
Q 2772 3750 2511 3984 
Q 2250 4219 1831 4219 
Q 1534 4219 1204 4116 
Q 875 4013 500 3803 
L 500 4441 
Q 881 4594 1212 4672 
Q 1544 4750 1819 4750 
Q 2544 4750 2975 4387 
Q 3406 4025 3406 3419 
Q 3406 3131 3298 2873 
Q 3191 2616 2906 2266 
Q 2828 2175 2409 1742 
Q 1991 1309 1228 531 
z
" transform="scale(0.015625)"/>
      <path id="DejaVuSans-5d" d="M 1947 4863 
L 1947 -844 
L 622 -844 
L 622 -397 
L 1369 -397 
L 1369 4416 
L 622 4416 
L 622 4863 
L 1947 4863 
z
" transform="scale(0.015625)"/>
     </defs>
     <use xlink:href="#DejaVuSans-61" transform="translate(0 0.529687)"/>
     <use xlink:href="#DejaVuSans-29" transform="translate(61.279297 0.529687)"/>
     <use xlink:href="#DejaVuSans-20" transform="translate(100.292969 0.529687)"/>
     <use xlink:href="#DejaVuSans-20" transform="translate(132.080078 0.529687)"/>
     <use xlink:href="#DejaVuSans-47" transform="translate(163.867188 0.529687)"/>
     <use xlink:href="#DejaVuSans-65" transform="translate(241.357422 0.529687)"/>
     <use xlink:href="#DejaVuSans-6f" transform="translate(302.880859 0.529687)"/>
     <use xlink:href="#DejaVuSans-64" transform="translate(364.0625 0.529687)"/>
     <use xlink:href="#DejaVuSans-65" transform="translate(427.539062 0.529687)"/>
     <use xlink:href="#DejaVuSans-73" transform="translate(489.0625 0.529687)"/>
     <use xlink:href="#DejaVuSans-69" transform="translate(541.162109 0.529687)"/>
     <use xlink:href="#DejaVuSans-63" transform="translate(568.945312 0.529687)"/>
     <use xlink:href="#DejaVuSans-73" transform="translate(623.925781 0.529687)"/>
     <use xlink:href="#DejaVuSans-20" transform="translate(676.025391 0.529687)"/>
     <use xlink:href="#DejaVuSans-69" transform="translate(707.8125 0.529687)"/>
     <use xlink:href="#DejaVuSans-6e" transform="translate(735.595703 0.529687)"/>
     <use xlink:href="#DejaVuSans-20" transform="translate(798.974609 0.529687)"/>
     <use xlink:href="#STIXNonUnicode-Italic-e239" transform="translate(830.761719 0.529687)"/>
     <use xlink:href="#DejaVuSans-5b" transform="translate(948.318741 38.810937) scale(0.7)"/>
     <use xlink:href="#DejaVuSans-31" transform="translate(975.628311 38.810937) scale(0.7)"/>
     <use xlink:href="#DejaVuSans-2c" transform="translate(1020.164444 38.810937) scale(0.7)"/>
     <use xlink:href="#DejaVuSans-32" transform="translate(1056.053116 38.810937) scale(0.7)"/>
     <use xlink:href="#DejaVuSans-5d" transform="translate(1100.589249 38.810937) scale(0.7)"/>
    </g>
   </g>
  </g>
  <g id="axes_2">
   <g id="patch_3">
    <path d="M 464.29875 331.148068 
C 499.297422 331.148068 532.867351 317.242948 557.61515 292.49515 
C 582.362948 267.747351 596.268068 234.177422 596.268068 199.17875 
C 596.268068 164.180078 582.362948 130.610149 557.61515 105.86235 
C 532.867351 81.114552 499.297422 67.209432 464.29875 67.209432 
C 429.300078 67.209432 395.730149 81.114552 370.98235 105.86235 
C 346.234552 130.610149 332.329432 164.180078 332.329432 199.17875 
C 332.329432 234.177422 346.234552 267.747351 370.98235 292.49515 
C 395.730149 317.242948 429.300078 331.148068 464.29875 331.148068 
L 464.29875 331.148068 
z
" clip-path="url(#p51cd2e8f99)" style="fill: none; stroke: #000000; stroke-width: 2; stroke-linejoin: miter"/>
   </g>
   <g id="PathCollection_1">
    <defs>
     <path id="mfc1ff6564c" d="M 0 3 
C 0.795609 3 1.55874 2.683901 2.12132 2.12132 
C 2.683901 1.55874 3 0.795609 3 0 
C 3 -0.795609 2.683901 -1.55874 2.12132 -2.12132 
C 1.55874 -2.683901 0.795609 -3 0 -3 
C -0.795609 -3 -1.55874 -2.683901 -2.12132 -2.12132 
C -2.683901 -1.55874 -3 -0.795609 -3 0 
C -3 0.795609 -2.683901 1.55874 -2.12132 2.12132 
C -1.55874 2.683901 -0.795609 3 0 3 
z
" style="stroke: #0000ff; stroke-opacity: 0.4"/>
    </defs>
    <g clip-path="url(#p51cd2e8f99)">
     <use xlink:href="#mfc1ff6564c" x="464.29875" y="199.17875" style="fill: #0000ff; fill-opacity: 0.4; stroke: #0000ff; stroke-opacity: 0.4"/>
    </g>
   </g>
   <g id="PathCollection_2">
    <defs>
     <path id="me2cddc8489" d="M 0 3 
C 0.795609 3 1.55874 2.683901 2.12132 2.12132 
C 2.683901 1.55874 3 0.795609 3 0 
C 3 -0.795609 2.683901 -1.55874 2.12132 -2.12132 
C 1.55874 -2.683901 0.795609 -3 0 -3 
C -0.795609 -3 -1.55874 -2.683901 -2.12132 -2.12132 
C -2.683901 -1.55874 -3 -0.795609 -3 0 
C -3 0.795609 -2.683901 1.55874 -2.12132 2.12132 
C -1.55874 2.683901 -0.795609 3 0 3 
z
" style="stroke: #0000ff"/>
    </defs>
    <g clip-path="url(#p51cd2e8f99)">
     <use xlink:href="#me2cddc8489" x="500.419956" y="224.93134" style="fill: #0000ff; stroke: #0000ff"/>
    </g>
   </g>
   <g id="patch_4">
    <path d="M 466.0441 200.17747 
Q 480.035234 210.15244 494.026368 220.12741 
L 495.0713 218.661764 
Q 496.931959 221.216448 498.792619 223.771131 
Q 495.770924 222.844943 492.74923 221.918755 
L 493.794161 220.453109 
Q 479.803027 210.478139 465.811893 200.50317 
L 466.0441 200.17747 
z
" clip-path="url(#p51cd2e8f99)" style="fill: #1f77b4; stroke: #1f77b4; stroke-linecap: round"/>
   </g>
   <g id="line2d_5">
    <path d="M 334.095935 199.17875 
L 334.280338 199.17875 
L 334.483838 199.17875 
L 334.708389 199.17875 
L 334.956089 199.17875 
L 335.229306 199.17875 
L 335.530596 199.17875 
L 335.862761 199.17875 
L 336.228868 199.17875 
L 336.63229 199.17875 
L 337.076695 199.17875 
L 337.566054 199.17875 
L 338.10474 199.17875 
L 338.697489 199.17875 
L 339.349414 199.17875 
L 340.066068 199.17875 
L 340.853461 199.17875 
L 341.718035 199.17875 
L 342.666775 199.17875 
L 343.707098 199.17875 
L 344.846958 199.17875 
L 346.094771 199.17875 
L 347.459495 199.17875 
L 348.950532 199.17875 
L 350.577737 199.17875 
L 352.351343 199.17875 
L 354.281923 199.17875 
L 356.3803 199.17875 
L 358.657448 199.17875 
L 361.124299 199.17875 
L 363.791694 199.17875 
L 366.670085 199.17875 
L 369.769409 199.17875 
L 373.098781 199.17875 
L 376.666273 199.17875 
L 380.478569 199.17875 
L 384.540744 199.17875 
L 388.855858 199.17875 
L 393.424689 199.17875 
L 398.245444 199.17875 
L 403.313471 199.17875 
L 408.621024 199.17875 
L 414.157147 199.17875 
L 419.907496 199.17875 
L 425.854424 199.17875 
L 431.977002 199.17875 
L 438.251267 199.17875 
L 444.650493 199.17875 
L 451.145635 199.17875 
L 457.705783 199.17875 
L 464.29875 199.17875 
L 470.891727 199.17875 
L 477.451868 199.17875 
L 483.947017 199.17875 
L 490.346241 199.17875 
L 496.620498 199.17875 
L 502.743088 199.17875 
L 508.689992 199.17875 
L 514.440353 199.17875 
L 519.976468 199.17875 
L 525.284041 199.17875 
L 530.352079 199.17875 
L 535.172818 199.17875 
L 539.741657 199.17875 
L 544.056763 199.17875 
L 548.118915 199.17875 
L 551.931196 199.17875 
L 555.498726 199.17875 
L 558.828083 199.17875 
L 561.927422 199.17875 
L 564.805767 199.17875 
L 567.473177 199.17875 
L 569.939966 199.17875 
L 572.217208 199.17875 
L 574.315514 199.17875 
L 576.246243 199.17875 
L 578.019873 199.17875 
L 579.646984 199.17875 
L 581.137989 199.17875 
L 582.502737 199.17875 
L 583.75044 199.17875 
L 584.890276 199.17875 
L 585.93078 199.17875 
L 586.879646 199.17875 
L 587.744141 199.17875 
L 588.531487 199.17875 
L 589.247858 199.17875 
L 589.900137 199.17875 
L 590.493098 199.17875 
L 591.03173 199.17875 
L 591.521135 199.17875 
L 591.965619 199.17875 
L 592.367649 199.17875 
L 592.735636 199.17875 
L 593.067328 199.17875 
L 593.368344 199.17875 
L 593.640436 199.17875 
L 593.889379 199.17875 
L 594.113032 199.17875 
L 594.317225 199.17875 
" clip-path="url(#p51cd2e8f99)" style="fill: none; stroke-dasharray: 7.4,3.2; stroke-dashoffset: 0; stroke: #1f77b4; stroke-opacity: 0.3; stroke-width: 2"/>
   </g>
   <g id="line2d_6">
    <path d="M 418.143809 320.80938 
L 418.215149 320.627117 
L 418.294088 320.426063 
L 418.381452 320.204368 
L 418.478121 319.959948 
L 418.585126 319.69053 
L 418.703595 319.393715 
L 418.834753 319.066726 
L 418.979983 318.706677 
L 419.140818 318.310357 
L 419.318971 317.87429 
L 419.516344 317.394741 
L 419.735066 316.867625 
L 419.977444 316.288555 
L 420.246142 315.652826 
L 420.544035 314.955365 
L 420.874383 314.19076 
L 421.240753 313.353292 
L 421.647153 312.436842 
L 422.098023 311.43503 
L 422.598272 310.341124 
L 423.153343 309.148192 
L 423.769242 307.849046 
L 424.452584 306.436418 
L 425.210684 304.902968 
L 426.051491 303.241459 
L 426.983708 301.444869 
L 428.016744 299.506556 
L 429.160784 297.420505 
L 430.426677 295.181508 
L 431.825916 292.785427 
L 433.370616 290.229532 
L 435.073173 287.512747 
L 436.94629 284.635999 
L 439.002608 281.602545 
L 441.25436 278.418222 
L 443.713062 275.091776 
L 446.388981 271.63503 
L 449.29069 268.062968 
L 452.424492 264.393813 
L 455.793871 260.648838 
L 459.398957 256.85212 
L 463.236037 253.030089 
L 467.297162 249.210953 
L 471.569948 245.423973 
L 476.037469 241.698611 
L 480.678366 238.063673 
L 485.467268 234.546363 
L 490.375271 231.171437 
L 495.370688 227.960491 
L 500.419956 224.93134 
L 505.488584 222.097613 
L 510.542125 219.468573 
L 515.547184 217.049151 
L 520.472222 214.84013 
L 525.288367 212.838547 
L 529.969973 211.038165 
L 534.49492 209.430083 
L 538.845014 208.003287 
L 543.005844 206.745309 
L 546.966824 205.642733 
L 550.720928 204.681735 
L 554.264349 203.848488 
L 557.596309 203.129497 
L 560.718484 202.511882 
L 563.634687 201.983556 
L 566.350528 201.533342 
L 568.873024 201.151042 
L 571.210126 200.827478 
L 573.370699 200.554432 
L 575.363947 200.324655 
L 577.19953 200.131766 
L 578.886996 199.970221 
L 580.436099 199.835194 
L 581.856027 199.722565 
L 583.156172 199.628762 
L 584.345108 199.550776 
L 585.43122 199.486032 
L 586.422593 199.432347 
L 587.326717 199.387885 
L 588.150561 199.351105 
L 588.90089 199.320704 
L 589.583869 199.295596 
L 590.205093 199.274881 
L 590.769745 199.257805 
L 591.282898 199.243735 
L 591.748848 199.232154 
L 592.172345 199.222612 
L 592.556716 199.214765 
L 592.905313 199.208317 
L 593.221628 199.203016 
L 593.508547 199.19866 
L 593.767771 199.195095 
L 594.004796 199.192143 
L 594.218232 199.189736 
L 594.411775 199.187759 
L 594.586588 199.186142 
L 594.746401 199.184804 
L 594.889893 199.183716 
L 595.020822 199.182817 
" clip-path="url(#p51cd2e8f99)" style="fill: none; stroke: #1f77b4; stroke-opacity: 0.8; stroke-width: 3; stroke-linecap: square"/>
   </g>
   <g id="line2d_7">
    <path d="M 564.259876 114.135464 
L 564.201534 114.184485 
L 564.136985 114.238516 
L 564.065641 114.298132 
L 563.986831 114.363908 
L 563.899731 114.436479 
L 563.803499 114.516523 
L 563.697064 114.604678 
L 563.579499 114.701909 
L 563.449569 114.809052 
L 563.306007 114.927073 
L 563.147319 115.057011 
L 562.971946 115.200015 
L 562.778152 115.35735 
L 562.564001 115.530386 
L 562.327368 115.72057 
L 562.065911 115.929506 
L 561.776962 116.158784 
L 561.457713 116.410306 
L 561.105042 116.686001 
L 560.715384 116.987843 
L 560.285036 117.31812 
L 559.809632 117.678948 
L 559.284664 118.072759 
L 558.704988 118.501958 
L 558.065059 118.968977 
L 557.358772 119.476278 
L 556.579536 120.026323 
L 555.719957 120.621306 
L 554.772334 121.263509 
L 553.72803 121.954653 
L 552.577937 122.696266 
L 551.312214 123.48933 
L 549.920414 124.334137 
L 548.391479 125.230104 
L 546.713854 126.175729 
L 544.875557 127.168094 
L 542.86443 128.202959 
L 540.668278 129.274243 
L 538.275171 130.373947 
L 535.673866 131.491892 
L 532.854225 132.615595 
L 529.807655 133.73004 
L 526.527736 134.817748 
L 523.011004 135.858886 
L 519.257368 136.831456 
L 515.270966 137.711746 
L 511.060666 138.474931 
L 506.640412 139.095888 
L 502.029773 139.550129 
L 497.25374 139.814965 
L 492.342534 139.870506 
L 487.331027 139.700939 
L 482.257795 139.295409 
L 477.163945 138.64886 
L 472.091686 137.762446 
L 467.082881 136.643644 
L 462.177504 135.306002 
L 457.412266 133.76852 
L 452.819442 132.054664 
L 448.426188 130.191275 
L 444.25378 128.20734 
L 440.317708 126.132655 
L 436.627651 123.996773 
L 433.188068 121.827924 
L 429.998492 119.652303 
L 427.05462 117.493342 
L 424.348769 115.371517 
L 421.870759 113.304092 
L 419.608624 111.305125 
L 417.549168 109.385628 
L 415.678574 107.553759 
L 413.982841 105.81514 
L 412.448073 104.173124 
L 411.060812 102.629181 
L 409.808194 101.183145 
L 408.678052 99.833602 
L 407.659042 98.578073 
L 406.740586 97.413341 
L 405.91306 96.335528 
L 405.167601 95.340426 
L 404.496074 94.423535 
L 403.891204 93.580262 
L 403.346284 92.805951 
L 402.855368 92.095982 
L 402.413016 91.445906 
L 402.01434 90.851356 
L 401.654979 90.308131 
L 401.330991 89.812314 
L 401.03884 89.360138 
L 400.775306 88.948094 
L 400.537569 88.572863 
L 400.323024 88.231385 
L 400.129422 87.920757 
L 399.954644 87.638392 
L 399.796892 87.38178 
L 399.6544 87.148719 
L 399.525724 86.937108 
L 399.409461 86.745021 
L 399.304473 86.570718 
" clip-path="url(#p51cd2e8f99)" style="fill: none; stroke-dasharray: 7.4,3.2; stroke-dashoffset: 0; stroke: #ff7f0e; stroke-opacity: 0.3; stroke-width: 2"/>
   </g>
   <g id="line2d_8">
    <path d="M 576.508653 131.046732 
L 576.446299 131.08441 
L 576.377385 131.125935 
L 576.301242 131.171754 
L 576.217139 131.222332 
L 576.124281 131.278205 
L 576.021701 131.33985 
L 575.90836 131.407765 
L 575.783228 131.482759 
L 575.645062 131.565439 
L 575.492509 131.656629 
L 575.324043 131.757094 
L 575.138068 131.867799 
L 574.932781 131.989738 
L 574.706217 132.124026 
L 574.456189 132.271867 
L 574.180329 132.434551 
L 573.875963 132.613392 
L 573.540274 132.810018 
L 573.170132 133.026066 
L 572.762006 133.263205 
L 572.312236 133.523471 
L 571.816601 133.808739 
L 571.270654 134.121247 
L 570.66952 134.463275 
L 570.007849 134.837193 
L 569.27986 135.245512 
L 568.479347 135.69092 
L 567.59945 136.175968 
L 566.632996 136.703539 
L 565.572095 137.276305 
L 564.40837 137.896998 
L 563.132932 138.568308 
L 561.73631 139.292703 
L 560.2085 140.072442 
L 558.539047 140.909501 
L 556.717018 141.805334 
L 554.731234 142.760968 
L 552.570173 143.776652 
L 550.222248 144.851814 
L 547.675989 145.984933 
L 544.920236 147.173361 
L 541.944298 148.413095 
L 538.738335 149.698727 
L 535.293813 151.023336 
L 531.603652 152.378306 
L 527.662774 153.753383 
L 523.468548 155.136659 
L 519.021015 156.514654 
L 514.323555 157.872508 
L 509.383103 159.194296 
L 504.210401 160.463284 
L 498.820298 161.662457 
L 493.231768 162.775014 
L 487.467732 163.784932 
L 481.554938 164.677504 
L 475.523494 165.439954 
L 469.406278 166.061953 
L 463.238211 166.535977 
L 457.055414 166.8577 
L 450.894457 167.026042 
L 444.791182 167.043303 
L 438.780107 166.914852 
L 432.893404 166.648995 
L 427.160465 166.256359 
L 421.607025 165.749729 
L 416.255178 165.143072 
L 411.122918 164.451373 
L 406.224133 163.689914 
L 401.568795 162.873807 
L 397.163069 162.017641 
L 393.009672 161.135078 
L 389.108215 160.23867 
L 385.455637 159.3396 
L 382.046575 158.44768 
L 378.873822 157.571264 
L 375.928664 156.717329 
L 373.201275 155.891467 
L 370.681014 155.098112 
L 368.356796 154.340445 
L 366.217256 153.620636 
L 364.250894 152.940134 
L 362.446429 152.29943 
L 360.792724 151.698622 
L 359.279073 151.137078 
L 357.895124 150.613919 
L 356.631021 150.127892 
L 355.477466 149.677466 
L 354.425627 149.261036 
L 353.467243 148.876787 
L 352.594591 148.522924 
L 351.800488 148.19761 
L 351.078257 147.89899 
L 350.421739 147.625183 
L 349.825174 147.37453 
L 349.283389 147.145201 
L 348.791435 146.935765 
L 348.34493 146.744574 
L 347.939745 146.570268 
L 347.572246 146.411324 
" clip-path="url(#p51cd2e8f99)" style="fill: none; stroke: #ff7f0e; stroke-opacity: 0.8; stroke-width: 3; stroke-linecap: square"/>
   </g>
   <g id="line2d_9">
    <path d="M 557.756712 291.415101 
L 557.706976 291.366828 
L 557.651977 291.313591 
L 557.59122 291.2548 
L 557.523966 291.190016 
L 557.449664 291.11853 
L 557.367503 291.039689 
L 557.276651 290.952786 
L 557.176226 290.85697 
L 557.065166 290.751393 
L 556.942308 290.63515 
L 556.806446 290.507139 
L 556.65619 290.366243 
L 556.490021 290.211212 
L 556.306178 290.040764 
L 556.102842 289.85342 
L 555.87789 289.647654 
L 555.629042 289.421798 
L 555.353654 289.174114 
L 555.049028 288.902604 
L 554.711916 288.605395 
L 554.338863 288.280349 
L 553.926064 287.925263 
L 553.469295 287.5378 
L 552.963756 287.115759 
L 552.404445 286.656676 
L 551.785463 286.158382 
L 551.100721 285.618484 
L 550.34325 285.034994 
L 549.505672 284.405943 
L 548.579712 283.729862 
L 547.556568 283.00564 
L 546.426627 282.232894 
L 545.179766 281.411866 
L 543.805013 280.543957 
L 542.291031 279.631684 
L 540.626046 278.679042 
L 538.797991 277.691775 
L 536.794832 276.677684 
L 534.605052 275.646753 
L 532.217836 274.611542 
L 529.623783 273.587178 
L 526.815466 272.591581 
L 523.788143 271.645381 
L 520.54055 270.771596 
L 517.075595 269.995318 
L 513.401087 269.343023 
L 509.530453 268.841583 
L 505.482979 268.51726 
L 501.283849 268.394409 
L 496.964073 268.494016 
L 492.559651 268.832466 
L 488.11052 269.420252 
L 483.659167 270.261118 
L 479.248891 271.351571 
L 474.922106 272.68082 
L 470.718379 274.231237 
L 466.673157 275.979295 
L 462.816324 277.896786 
L 459.171509 279.952309 
L 455.75576 282.112843 
L 452.579473 284.345257 
L 449.646954 286.617535 
L 446.957076 288.900024 
L 444.504134 291.16597 
L 442.278778 293.392264 
L 440.269 295.55946 
L 438.460907 297.651946 
L 436.839594 299.657654 
L 435.389675 301.567814 
L 434.095903 303.376628 
L 432.94341 305.080825 
L 431.918111 306.679256 
L 431.006738 308.172543 
L 430.197151 309.562745 
L 429.478189 310.852924 
L 428.839711 312.046988 
L 428.272616 313.149422 
L 427.768745 314.165046 
L 427.320817 315.098896 
L 426.92242 315.956091 
L 426.56779 316.741746 
L 426.251947 317.46087 
L 425.970357 318.118293 
L 425.719145 318.71868 
L 425.494846 319.266452 
L 425.294421 319.765792 
L 425.115159 320.220658 
L 424.954744 320.634716 
L 424.810986 321.011387 
L 424.682184 321.353879 
L 424.566629 321.665136 
L 424.462892 321.947895 
L 424.369712 322.204649 
L 424.286014 322.437733 
L 424.210713 322.649202 
L 424.142967 322.841077 
L 424.081982 323.015089 
L 424.027113 323.172888 
L 423.977644 323.315931 
" clip-path="url(#p51cd2e8f99)" style="fill: none; stroke-dasharray: 7.4,3.2; stroke-dashoffset: 0; stroke: #d62728; stroke-opacity: 0.3; stroke-width: 2"/>
   </g>
   <g id="line2d_10">
    <path d="M 583.603723 254.796781 
L 583.57152 254.782119 
L 583.535887 254.76597 
L 583.496526 254.74813 
L 583.452987 254.728536 
L 583.404887 254.706908 
L 583.351713 254.683094 
L 583.292923 254.6569 
L 583.227957 254.628052 
L 583.156125 254.596332 
L 583.076694 254.561502 
L 582.988902 254.523234 
L 582.891828 254.481229 
L 582.784528 254.43515 
L 582.665878 254.384682 
L 582.534712 254.329408 
L 582.389679 254.268958 
L 582.229331 254.202947 
L 582.052016 254.130969 
L 581.855996 254.052533 
L 581.639264 253.967301 
L 581.399627 253.874837 
L 581.134685 253.774754 
L 580.841803 253.666671 
L 580.518031 253.550373 
L 580.160192 253.425602 
L 579.764714 253.292368 
L 579.327782 253.150694 
L 578.845141 253.000914 
L 578.31226 252.843571 
L 577.724144 252.679644 
L 577.075428 252.510474 
L 576.36041 252.337992 
L 575.57301 252.16474 
L 574.706839 251.994151 
L 573.75533 251.830499 
L 572.711789 251.679279 
L 571.569601 251.547205 
L 570.32241 251.442588 
L 568.964505 251.375204 
L 567.491096 251.356738 
L 565.898871 251.400607 
L 564.186392 251.522062 
L 562.354891 251.738022 
L 560.408737 252.06662 
L 558.356163 252.526839 
L 556.209804 253.137668 
L 553.987097 253.916967 
L 551.71039 254.880424 
L 549.406663 256.040142 
L 547.106925 257.403218 
L 544.845006 258.97059 
L 542.655997 260.736146 
L 540.574295 262.68632 
L 538.631688 264.800303 
L 536.855368 267.050978 
L 535.26629 269.406313 
L 533.878392 271.831262 
L 532.697904 274.289792 
L 531.723805 276.746881 
L 530.94858 279.170194 
L 530.359387 281.531453 
L 529.939469 283.807192 
L 529.669654 285.979156 
L 529.529588 288.034113 
L 529.498899 289.963678 
L 529.558083 291.763517 
L 529.689055 293.432821 
L 529.875589 294.973507 
L 530.103404 296.389684 
L 530.360378 297.686847 
L 530.636206 298.871622 
L 530.92252 299.95115 
L 531.212508 300.932895 
L 531.500835 301.824245 
L 531.783389 302.632546 
L 532.057086 303.364767 
L 532.319692 304.027554 
L 532.569689 304.627115 
L 532.806133 305.169255 
L 533.02852 305.659266 
L 533.236701 306.102098 
L 533.430818 306.502177 
L 533.611137 306.863674 
L 533.778203 307.190223 
L 533.932518 307.485213 
L 534.074774 307.751728 
L 534.205617 307.992482 
L 534.325778 308.209993 
L 534.435909 308.40654 
L 534.536767 308.584138 
L 534.629004 308.744636 
L 534.713233 308.889661 
L 534.790091 309.020763 
L 534.860177 309.139241 
L 534.924033 309.246352 
L 534.982131 309.343214 
L 535.035006 309.430746 
L 535.083115 309.509894 
L 535.12681 309.581466 
" clip-path="url(#p51cd2e8f99)" style="fill: none; stroke: #d62728; stroke-opacity: 0.8; stroke-width: 3; stroke-linecap: square"/>
   </g>
   <g id="line2d_11">
    <path d="M 542.209177 304.957298 
L 542.172632 304.906672 
L 542.132295 304.85069 
L 542.087813 304.78884 
L 542.038761 304.720437 
L 541.984706 304.644845 
L 541.925113 304.561261 
L 541.859464 304.468868 
L 541.787167 304.366712 
L 541.707548 304.253812 
L 541.619968 304.128915 
L 541.523586 303.990883 
L 541.417663 303.83822 
L 541.301254 303.669455 
L 541.173392 303.482835 
L 541.033134 303.276447 
L 540.879323 303.048231 
L 540.710825 302.795891 
L 540.526407 302.516821 
L 540.324794 302.208223 
L 540.104673 301.866949 
L 539.864642 301.489571 
L 539.60335 301.072241 
L 539.319356 300.610815 
L 539.011364 300.100635 
L 538.678066 299.536644 
L 538.318245 298.913304 
L 537.931018 298.224456 
L 537.515592 297.463508 
L 537.071596 296.62324 
L 536.59911 295.695841 
L 536.098857 294.672893 
L 535.572245 293.545438 
L 535.021595 292.303997 
L 534.450438 290.938596 
L 533.863573 289.439001 
L 533.267394 287.794806 
L 532.670138 285.995698 
L 532.082053 284.031782 
L 531.515655 281.894035 
L 530.985834 279.574758 
L 530.509934 277.068144 
L 530.107644 274.371047 
L 529.80087 271.483617 
L 529.613137 268.41011 
L 529.569111 265.159543 
L 529.693515 261.746339 
L 530.010086 258.190631 
L 530.540241 254.518349 
L 531.301637 250.760973 
L 532.3068 246.954698 
L 533.561936 243.13931 
L 535.065951 239.356656 
L 536.810131 235.648753 
L 538.778145 232.055884 
L 540.946695 228.614774 
L 543.286762 225.356915 
L 545.764964 222.307442 
L 548.345479 219.484411 
L 550.991848 216.898614 
L 553.668194 214.554009 
L 556.34126 212.448256 
L 558.9811 210.573802 
L 561.561662 208.919015 
L 564.061511 207.469204 
L 566.463507 206.207825 
L 568.754979 205.117294 
L 570.926958 204.179891 
L 572.974293 203.378236 
L 574.894269 202.695899 
L 576.687297 202.117488 
L 578.355043 201.629038 
L 579.901039 201.217927 
L 581.330131 200.872919 
L 582.647747 200.584149 
L 583.859682 200.343034 
L 584.972444 200.14211 
L 585.992473 199.974985 
L 586.925914 199.836218 
L 587.778799 199.721176 
L 588.557421 199.625915 
L 589.26724 199.547142 
L 589.91461 199.482029 
L 590.503906 199.428289 
L 591.039784 199.383978 
L 591.527137 199.347457 
L 591.970094 199.317377 
L 592.370976 199.292661 
L 592.738113 199.272243 
L 593.069169 199.25551 
L 593.369705 199.241752 
L 593.641459 199.230466 
L 593.890134 199.221155 
L 594.113599 199.213543 
L 594.31765 199.207273 
L 594.500196 199.202159 
L 594.667112 199.197944 
L 594.818328 199.194486 
L 594.957776 199.191626 
L 595.081414 199.189306 
" clip-path="url(#p51cd2e8f99)" style="fill: none; stroke-dasharray: 7.4,3.2; stroke-dashoffset: 0; stroke: #2ca02c; stroke-opacity: 0.3; stroke-width: 2"/>
   </g>
   <g id="line2d_12">
    <path d="M 578.854682 264.09513 
L 578.827553 264.079406 
L 578.797583 264.062022 
L 578.764491 264.042789 
L 578.727954 264.021492 
L 578.687609 263.99791 
L 578.643095 263.971799 
L 578.593949 263.942872 
L 578.539721 263.910834 
L 578.479884 263.875327 
L 578.413881 263.83595 
L 578.341081 263.792321 
L 578.260816 263.743902 
L 578.172324 263.690205 
L 578.074786 263.630604 
L 577.967344 263.564408 
L 577.848993 263.490892 
L 577.718701 263.409192 
L 577.575327 263.318352 
L 577.417622 263.217298 
L 577.244256 263.104818 
L 577.053797 262.979556 
L 576.844695 262.839955 
L 576.615307 262.684291 
L 576.363903 262.510574 
L 576.088641 262.316611 
L 575.787601 262.099864 
L 575.458819 261.857493 
L 575.100248 261.58629 
L 574.709875 261.282616 
L 574.285718 260.94238 
L 573.825872 260.560959 
L 573.328616 260.133151 
L 572.792534 259.653189 
L 572.216586 259.114593 
L 571.600271 258.51019 
L 570.943854 257.832147 
L 570.248525 257.071907 
L 569.516697 256.220265 
L 568.752273 255.267568 
L 567.960916 254.203772 
L 567.150428 253.018817 
L 566.330973 251.702975 
L 565.515405 250.247403 
L 564.719296 248.644755 
L 563.961118 246.889968 
L 563.261863 244.98115 
L 562.644635 242.920415 
L 562.133897 240.714781 
L 561.754261 238.376822 
L 561.529199 235.924995 
L 561.47936 233.383605 
L 561.620932 230.782246 
L 561.964219 228.154568 
L 562.512486 225.536718 
L 563.261328 222.965341 
L 564.198898 220.475448 
L 565.306508 218.098484 
L 566.560062 215.860674 
L 567.931788 213.781949 
L 569.391856 211.8756 
L 570.910494 210.148193 
L 572.459323 208.600317 
L 574.0125 207.227517 
L 575.547689 206.021295 
L 577.046167 204.97037 
L 578.493264 204.061616 
L 579.877732 203.281095 
L 581.191934 202.614649 
L 582.430724 202.048633 
L 583.591846 201.570069 
L 584.674512 201.167109 
L 585.679706 200.829004 
L 586.609654 200.546165 
L 587.46729 200.310189 
L 588.25602 200.113784 
L 588.979895 199.950626 
L 589.64299 199.815317 
L 590.249284 199.703291 
L 590.802743 199.610675 
L 591.307519 199.534181 
L 591.767207 199.471082 
L 592.186023 199.419039 
L 592.566894 199.376176 
L 592.912895 199.340906 
L 593.227267 199.311888 
L 593.51274 199.288028 
L 593.770893 199.26846 
L 594.007109 199.252304 
L 594.219947 199.239089 
L 594.413049 199.228237 
L 594.587532 199.219346 
L 594.747101 199.212012 
L 594.890412 199.206028 
L 595.021215 199.201099 
L 595.138182 199.197086 
L 595.245073 199.193778 
L 595.34188 199.191066 
L 595.431127 199.188821 
L 595.51022 199.187004 
" clip-path="url(#p51cd2e8f99)" style="fill: none; stroke: #2ca02c; stroke-opacity: 0.8; stroke-width: 3; stroke-linecap: square"/>
   </g>
   <g id="text_2">
    <!-- b)  Group operation -->
    <g style="fill: #373737" transform="translate(346.41375 27.64875) scale(0.24 -0.24)">
     <defs>
      <path id="DejaVuSans-62" d="M 3116 1747 
Q 3116 2381 2855 2742 
Q 2594 3103 2138 3103 
Q 1681 3103 1420 2742 
Q 1159 2381 1159 1747 
Q 1159 1113 1420 752 
Q 1681 391 2138 391 
Q 2594 391 2855 752 
Q 3116 1113 3116 1747 
z
M 1159 2969 
Q 1341 3281 1617 3432 
Q 1894 3584 2278 3584 
Q 2916 3584 3314 3078 
Q 3713 2572 3713 1747 
Q 3713 922 3314 415 
Q 2916 -91 2278 -91 
Q 1894 -91 1617 61 
Q 1341 213 1159 525 
L 1159 0 
L 581 0 
L 581 4863 
L 1159 4863 
L 1159 2969 
z
" transform="scale(0.015625)"/>
      <path id="DejaVuSans-72" d="M 2631 2963 
Q 2534 3019 2420 3045 
Q 2306 3072 2169 3072 
Q 1681 3072 1420 2755 
Q 1159 2438 1159 1844 
L 1159 0 
L 581 0 
L 581 3500 
L 1159 3500 
L 1159 2956 
Q 1341 3275 1631 3429 
Q 1922 3584 2338 3584 
Q 2397 3584 2469 3576 
Q 2541 3569 2628 3553 
L 2631 2963 
z
" transform="scale(0.015625)"/>
      <path id="DejaVuSans-75" d="M 544 1381 
L 544 3500 
L 1119 3500 
L 1119 1403 
Q 1119 906 1312 657 
Q 1506 409 1894 409 
Q 2359 409 2629 706 
Q 2900 1003 2900 1516 
L 2900 3500 
L 3475 3500 
L 3475 0 
L 2900 0 
L 2900 538 
Q 2691 219 2414 64 
Q 2138 -91 1772 -91 
Q 1169 -91 856 284 
Q 544 659 544 1381 
z
M 1991 3584 
L 1991 3584 
z
" transform="scale(0.015625)"/>
      <path id="DejaVuSans-70" d="M 1159 525 
L 1159 -1331 
L 581 -1331 
L 581 3500 
L 1159 3500 
L 1159 2969 
Q 1341 3281 1617 3432 
Q 1894 3584 2278 3584 
Q 2916 3584 3314 3078 
Q 3713 2572 3713 1747 
Q 3713 922 3314 415 
Q 2916 -91 2278 -91 
Q 1894 -91 1617 61 
Q 1341 213 1159 525 
z
M 3116 1747 
Q 3116 2381 2855 2742 
Q 2594 3103 2138 3103 
Q 1681 3103 1420 2742 
Q 1159 2381 1159 1747 
Q 1159 1113 1420 752 
Q 1681 391 2138 391 
Q 2594 391 2855 752 
Q 3116 1113 3116 1747 
z
" transform="scale(0.015625)"/>
      <path id="DejaVuSans-74" d="M 1172 4494 
L 1172 3500 
L 2356 3500 
L 2356 3053 
L 1172 3053 
L 1172 1153 
Q 1172 725 1289 603 
Q 1406 481 1766 481 
L 2356 481 
L 2356 0 
L 1766 0 
Q 1100 0 847 248 
Q 594 497 594 1153 
L 594 3053 
L 172 3053 
L 172 3500 
L 594 3500 
L 594 4494 
L 1172 4494 
z
" transform="scale(0.015625)"/>
     </defs>
     <use xlink:href="#DejaVuSans-62"/>
     <use xlink:href="#DejaVuSans-29" transform="translate(63.476562 0)"/>
     <use xlink:href="#DejaVuSans-20" transform="translate(102.490234 0)"/>
     <use xlink:href="#DejaVuSans-20" transform="translate(134.277344 0)"/>
     <use xlink:href="#DejaVuSans-47" transform="translate(166.064453 0)"/>
     <use xlink:href="#DejaVuSans-72" transform="translate(243.554688 0)"/>
     <use xlink:href="#DejaVuSans-6f" transform="translate(282.417969 0)"/>
     <use xlink:href="#DejaVuSans-75" transform="translate(343.599609 0)"/>
     <use xlink:href="#DejaVuSans-70" transform="translate(406.978516 0)"/>
     <use xlink:href="#DejaVuSans-20" transform="translate(470.455078 0)"/>
     <use xlink:href="#DejaVuSans-6f" transform="translate(502.242188 0)"/>
     <use xlink:href="#DejaVuSans-70" transform="translate(563.423828 0)"/>
     <use xlink:href="#DejaVuSans-65" transform="translate(626.900391 0)"/>
     <use xlink:href="#DejaVuSans-72" transform="translate(688.423828 0)"/>
     <use xlink:href="#DejaVuSans-61" transform="translate(729.537109 0)"/>
     <use xlink:href="#DejaVuSans-74" transform="translate(790.816406 0)"/>
     <use xlink:href="#DejaVuSans-69" transform="translate(830.025391 0)"/>
     <use xlink:href="#DejaVuSans-6f" transform="translate(857.808594 0)"/>
     <use xlink:href="#DejaVuSans-6e" transform="translate(918.990234 0)"/>
    </g>
   </g>
  </g>
  <g id="axes_3">
   <g id="patch_5">
    <path d="M 776.23125 331.148068 
C 811.229922 331.148068 844.799851 317.242948 869.54765 292.49515 
C 894.295448 267.747351 908.200568 234.177422 908.200568 199.17875 
C 908.200568 164.180078 894.295448 130.610149 869.54765 105.86235 
C 844.799851 81.114552 811.229922 67.209432 776.23125 67.209432 
C 741.232578 67.209432 707.662649 81.114552 682.91485 105.86235 
C 658.167052 130.610149 644.261932 164.180078 644.261932 199.17875 
C 644.261932 234.177422 658.167052 267.747351 682.91485 292.49515 
C 707.662649 317.242948 741.232578 331.148068 776.23125 331.148068 
L 776.23125 331.148068 
z
" clip-path="url(#pf4da069bd3)" style="fill: none; stroke: #000000; stroke-width: 2; stroke-linejoin: miter"/>
   </g>
   <g id="line2d_13">
    <path d="M 646.028435 199.17875 
L 646.212838 199.17875 
L 646.416338 199.17875 
L 646.640889 199.17875 
L 646.888589 199.17875 
L 647.161806 199.17875 
L 647.463096 199.17875 
L 647.795261 199.17875 
L 648.161368 199.17875 
L 648.56479 199.17875 
L 649.009195 199.17875 
L 649.498554 199.17875 
L 650.03724 199.17875 
L 650.629989 199.17875 
L 651.281914 199.17875 
L 651.998568 199.17875 
L 652.785961 199.17875 
L 653.650535 199.17875 
L 654.599275 199.17875 
L 655.639598 199.17875 
L 656.779458 199.17875 
L 658.027271 199.17875 
L 659.391995 199.17875 
L 660.883032 199.17875 
L 662.510237 199.17875 
L 664.283843 199.17875 
L 666.214423 199.17875 
L 668.3128 199.17875 
L 670.589948 199.17875 
L 673.056799 199.17875 
L 675.724194 199.17875 
L 678.602585 199.17875 
L 681.701909 199.17875 
L 685.031281 199.17875 
L 688.598773 199.17875 
L 692.411069 199.17875 
L 696.473244 199.17875 
L 700.788358 199.17875 
L 705.357189 199.17875 
L 710.177944 199.17875 
L 715.245971 199.17875 
L 720.553524 199.17875 
L 726.089647 199.17875 
L 731.839996 199.17875 
L 737.786924 199.17875 
L 743.909502 199.17875 
L 750.183767 199.17875 
L 756.582993 199.17875 
L 763.078135 199.17875 
L 769.638283 199.17875 
L 776.23125 199.17875 
L 782.824227 199.17875 
L 789.384368 199.17875 
L 795.879517 199.17875 
L 802.278741 199.17875 
L 808.552998 199.17875 
L 814.675588 199.17875 
L 820.622492 199.17875 
L 826.372853 199.17875 
L 831.908968 199.17875 
L 837.216541 199.17875 
L 842.284579 199.17875 
L 847.105318 199.17875 
L 851.674157 199.17875 
L 855.989263 199.17875 
L 860.051415 199.17875 
L 863.863696 199.17875 
L 867.431226 199.17875 
L 870.760583 199.17875 
L 873.859922 199.17875 
L 876.738267 199.17875 
L 879.405677 199.17875 
L 881.872466 199.17875 
L 884.149708 199.17875 
L 886.248014 199.17875 
L 888.178743 199.17875 
L 889.952373 199.17875 
L 891.579484 199.17875 
L 893.070489 199.17875 
L 894.435237 199.17875 
L 895.68294 199.17875 
L 896.822776 199.17875 
L 897.86328 199.17875 
L 898.812146 199.17875 
L 899.676641 199.17875 
L 900.463987 199.17875 
L 901.180358 199.17875 
L 901.832637 199.17875 
L 902.425598 199.17875 
L 902.96423 199.17875 
L 903.453635 199.17875 
L 903.898119 199.17875 
L 904.300149 199.17875 
L 904.668136 199.17875 
L 904.999828 199.17875 
L 905.300844 199.17875 
L 905.572936 199.17875 
L 905.821879 199.17875 
L 906.045532 199.17875 
L 906.249725 199.17875 
" clip-path="url(#pf4da069bd3)" style="fill: none; stroke-dasharray: 7.4,3.2; stroke-dashoffset: 0; stroke: #1f77b4; stroke-opacity: 0.3; stroke-width: 2"/>
   </g>
   <g id="line2d_14">
    <path d="M 663.472294 134.077347 
L 663.632013 134.16954 
L 663.80825 134.271302 
L 664.002713 134.383558 
L 664.217218 134.507423 
L 664.453843 134.644012 
L 664.714758 134.794657 
L 665.002401 134.96076 
L 665.319479 135.143817 
L 665.668854 135.345508 
L 666.053713 135.567722 
L 666.477525 135.812394 
L 666.94404 136.081737 
L 667.457375 136.378112 
L 668.021948 136.704086 
L 668.642597 137.062401 
L 669.324492 137.456098 
L 670.073247 137.888388 
L 670.894865 138.362758 
L 671.795819 138.88292 
L 672.782968 139.452854 
L 673.863597 140.076756 
L 675.045477 140.759119 
L 676.336773 141.504641 
L 677.745964 142.318243 
L 679.281947 143.205035 
L 680.953893 144.170329 
L 682.771132 145.219529 
L 684.74319 146.358103 
L 686.87956 147.591525 
L 689.189587 148.925222 
L 691.682357 150.364422 
L 694.366435 151.91408 
L 697.249767 153.578766 
L 700.339297 155.362511 
L 703.640855 157.268667 
L 707.158799 159.299747 
L 710.895782 161.457304 
L 714.85251 163.74172 
L 719.027401 166.152097 
L 723.416443 168.686108 
L 728.012931 171.339889 
L 732.807351 174.107948 
L 737.787298 176.983127 
L 742.937488 179.956585 
L 748.239795 183.017876 
L 753.673465 186.155009 
L 759.215364 189.35462 
L 764.840319 192.602191 
L 770.52157 195.882266 
L 776.23125 199.17875 
L 781.940935 202.475238 
L 787.622185 205.755308 
L 793.247138 209.002883 
L 798.789041 212.202498 
L 804.222699 215.339623 
L 809.52502 218.400919 
L 814.675194 221.374371 
L 819.655153 224.249552 
L 824.449561 227.017609 
L 829.046069 229.671396 
L 833.435111 232.205419 
L 837.609998 234.615784 
L 841.566722 236.9002 
L 845.303717 239.057753 
L 848.821637 241.088833 
L 852.123179 242.994969 
L 855.212741 244.778738 
L 858.096049 246.443413 
L 860.780159 247.993086 
L 863.272874 249.432266 
L 865.582917 250.765975 
L 867.719224 251.999362 
L 869.691383 253.137975 
L 871.508559 254.187136 
L 873.180608 255.152512 
L 874.716622 256.039312 
L 876.125751 256.852867 
L 877.416999 257.598377 
L 878.598895 258.280748 
L 879.679429 258.904614 
L 880.666571 259.474533 
L 881.567682 259.994757 
L 882.38941 260.469202 
L 883.138095 260.901442 
L 883.819965 261.295123 
L 884.44034 261.653316 
L 885.00522 261.979455 
L 885.518774 262.275924 
L 885.985219 262.545256 
L 886.40907 262.789935 
L 886.793992 263.012208 
L 887.142172 263.213207 
L 887.460854 263.397201 
L 887.748112 263.563039 
L 888.008799 263.713543 
L 888.24444 263.849597 
L 888.460015 263.974088 
L 888.653715 264.085883 
L 888.83055 264.187996 
" clip-path="url(#pf4da069bd3)" style="fill: none; stroke: #1f77b4; stroke-opacity: 0.8; stroke-width: 3; stroke-linecap: square"/>
   </g>
   <g id="line2d_15">
    <path d="M 876.192376 114.135464 
L 876.134034 114.184485 
L 876.069485 114.238516 
L 875.998141 114.298132 
L 875.919331 114.363908 
L 875.832231 114.436479 
L 875.735999 114.516523 
L 875.629564 114.604678 
L 875.511999 114.701909 
L 875.382069 114.809052 
L 875.238507 114.927073 
L 875.079819 115.057011 
L 874.904446 115.200015 
L 874.710652 115.35735 
L 874.496501 115.530386 
L 874.259868 115.72057 
L 873.998411 115.929506 
L 873.709462 116.158784 
L 873.390213 116.410306 
L 873.037542 116.686001 
L 872.647884 116.987843 
L 872.217536 117.31812 
L 871.742132 117.678948 
L 871.217164 118.072759 
L 870.637488 118.501958 
L 869.997559 118.968977 
L 869.291272 119.476278 
L 868.512036 120.026323 
L 867.652457 120.621306 
L 866.704834 121.263509 
L 865.66053 121.954653 
L 864.510437 122.696266 
L 863.244714 123.48933 
L 861.852914 124.334137 
L 860.323979 125.230104 
L 858.646354 126.175729 
L 856.808057 127.168094 
L 854.79693 128.202959 
L 852.600778 129.274243 
L 850.207671 130.373947 
L 847.606366 131.491892 
L 844.786725 132.615595 
L 841.740155 133.73004 
L 838.460236 134.817748 
L 834.943504 135.858886 
L 831.189868 136.831456 
L 827.203466 137.711746 
L 822.993166 138.474931 
L 818.572912 139.095888 
L 813.962273 139.550129 
L 809.18624 139.814965 
L 804.275034 139.870506 
L 799.263527 139.700939 
L 794.190295 139.295409 
L 789.096445 138.64886 
L 784.024186 137.762446 
L 779.015381 136.643644 
L 774.110004 135.306002 
L 769.344766 133.76852 
L 764.751942 132.054664 
L 760.358688 130.191275 
L 756.18628 128.20734 
L 752.250208 126.132655 
L 748.560151 123.996773 
L 745.120568 121.827924 
L 741.930992 119.652303 
L 738.98712 117.493342 
L 736.281269 115.371517 
L 733.803259 113.304092 
L 731.541124 111.305125 
L 729.481668 109.385628 
L 727.611074 107.553759 
L 725.915341 105.81514 
L 724.380573 104.173124 
L 722.993312 102.629181 
L 721.740694 101.183145 
L 720.610552 99.833602 
L 719.591542 98.578073 
L 718.673086 97.413341 
L 717.84556 96.335528 
L 717.100101 95.340426 
L 716.428574 94.423535 
L 715.823704 93.580262 
L 715.278784 92.805951 
L 714.787868 92.095982 
L 714.345516 91.445906 
L 713.94684 90.851356 
L 713.587479 90.308131 
L 713.263491 89.812314 
L 712.97134 89.360138 
L 712.707806 88.948094 
L 712.470069 88.572863 
L 712.255524 88.231385 
L 712.061922 87.920757 
L 711.887144 87.638392 
L 711.729392 87.38178 
L 711.5869 87.148719 
L 711.458224 86.937108 
L 711.341961 86.745021 
L 711.236973 86.570718 
" clip-path="url(#pf4da069bd3)" style="fill: none; stroke-dasharray: 7.4,3.2; stroke-dashoffset: 0; stroke: #ff7f0e; stroke-opacity: 0.3; stroke-width: 2"/>
   </g>
   <g id="line2d_16">
    <path d="M 905.321775 175.509665 
L 905.246734 175.522968 
L 905.163818 175.537455 
L 905.072235 175.553408 
L 904.971094 175.571014 
L 904.859342 175.590146 
L 904.735995 175.611439 
L 904.599749 175.634591 
L 904.44932 175.660045 
L 904.283214 175.687792 
L 904.099897 175.718312 
L 903.897489 175.751455 
L 903.674111 175.787631 
L 903.427591 175.826928 
L 903.155633 175.869764 
L 902.855608 175.916165 
L 902.524726 175.966384 
L 902.15983 176.020421 
L 901.757572 176.078562 
L 901.314292 176.140977 
L 900.825964 176.207684 
L 900.28808 176.278413 
L 899.696008 176.353288 
L 899.044484 176.431918 
L 898.327845 176.51372 
L 897.540146 176.598197 
L 896.67484 176.684401 
L 895.724944 176.771113 
L 894.683047 176.856609 
L 893.5413 176.938967 
L 892.291355 177.015383 
L 890.924467 177.082529 
L 889.431873 177.136559 
L 887.804063 177.172204 
L 886.032006 177.183706 
L 884.106287 177.163781 
L 882.01812 177.104086 
L 879.759041 176.994761 
L 877.321412 176.824407 
L 874.699121 176.580255 
L 871.887354 176.247766 
L 868.883649 175.811123 
L 865.687998 175.252968 
L 862.303643 174.554982 
L 858.737489 173.698274 
L 855.000454 172.663722 
L 851.107972 171.432863 
L 847.080139 169.988652 
L 842.941625 168.316291 
L 838.721575 166.404359 
L 834.453024 164.245705 
L 830.172006 161.838191 
L 825.916685 159.185584 
L 821.725917 156.297781 
L 817.637788 153.190925 
L 813.688285 149.887141 
L 809.90993 146.413821 
L 806.330565 142.802701 
L 802.972482 139.08858 
L 799.851918 135.307937 
L 796.978942 131.497563 
L 794.357502 127.693219 
L 791.986111 123.928449 
L 789.858379 120.233702 
L 787.964024 116.635635 
L 786.289574 113.156691 
L 784.819586 109.815048 
L 783.537174 106.624566 
L 782.424857 103.595116 
L 781.465286 100.732888 
L 780.641487 98.040826 
L 779.937445 95.519094 
L 779.338184 93.165536 
L 778.830044 90.976126 
L 778.400623 88.945388 
L 778.038859 87.066787 
L 777.734889 85.332966 
L 777.480151 83.736156 
L 777.267133 82.268245 
L 777.089406 80.92107 
L 776.941315 79.686543 
L 776.818217 78.556736 
L 776.716011 77.523995 
L 776.631266 76.58095 
L 776.56111 75.720655 
L 776.503026 74.936503 
L 776.455047 74.222256 
L 776.415461 73.57214 
L 776.382803 72.980767 
L 776.355841 72.443096 
L 776.333654 71.954469 
L 776.315411 71.510639 
L 776.300321 71.107641 
L 776.287973 70.741849 
L 776.277813 70.409912 
L 776.269483 70.10881 
L 776.262603 69.835703 
L 776.256971 69.588113 
L 776.252327 69.363642 
L 776.248547 69.160196 
" clip-path="url(#pf4da069bd3)" style="fill: none; stroke: #ff7f0e; stroke-opacity: 0.8; stroke-width: 3; stroke-linecap: square"/>
   </g>
   <g id="line2d_17">
    <path d="M 869.689212 291.415101 
L 869.639476 291.366828 
L 869.584477 291.313591 
L 869.52372 291.2548 
L 869.456466 291.190016 
L 869.382164 291.11853 
L 869.300003 291.039689 
L 869.209151 290.952786 
L 869.108726 290.85697 
L 868.997666 290.751393 
L 868.874808 290.63515 
L 868.738946 290.507139 
L 868.58869 290.366243 
L 868.422521 290.211212 
L 868.238678 290.040764 
L 868.035342 289.85342 
L 867.81039 289.647654 
L 867.561542 289.421798 
L 867.286154 289.174114 
L 866.981528 288.902604 
L 866.644416 288.605395 
L 866.271363 288.280349 
L 865.858564 287.925263 
L 865.401795 287.5378 
L 864.896256 287.115759 
L 864.336945 286.656676 
L 863.717963 286.158382 
L 863.033221 285.618484 
L 862.27575 285.034994 
L 861.438172 284.405943 
L 860.512212 283.729862 
L 859.489068 283.00564 
L 858.359127 282.232894 
L 857.112266 281.411866 
L 855.737513 280.543957 
L 854.223531 279.631684 
L 852.558546 278.679042 
L 850.730491 277.691775 
L 848.727332 276.677684 
L 846.537552 275.646753 
L 844.150336 274.611542 
L 841.556283 273.587178 
L 838.747966 272.591581 
L 835.720643 271.645381 
L 832.47305 270.771596 
L 829.008095 269.995318 
L 825.333587 269.343023 
L 821.462953 268.841583 
L 817.415479 268.51726 
L 813.216349 268.394409 
L 808.896573 268.494016 
L 804.492151 268.832466 
L 800.04302 269.420252 
L 795.591667 270.261118 
L 791.181391 271.351571 
L 786.854606 272.68082 
L 782.650879 274.231237 
L 778.605657 275.979295 
L 774.748824 277.896786 
L 771.104009 279.952309 
L 767.68826 282.112843 
L 764.511973 284.345257 
L 761.579454 286.617535 
L 758.889576 288.900024 
L 756.436634 291.16597 
L 754.211278 293.392264 
L 752.2015 295.55946 
L 750.393407 297.651946 
L 748.772094 299.657654 
L 747.322175 301.567814 
L 746.028403 303.376628 
L 744.87591 305.080825 
L 743.850611 306.679256 
L 742.939238 308.172543 
L 742.129651 309.562745 
L 741.410689 310.852924 
L 740.772211 312.046988 
L 740.205116 313.149422 
L 739.701245 314.165046 
L 739.253317 315.098896 
L 738.85492 315.956091 
L 738.50029 316.741746 
L 738.184447 317.46087 
L 737.902857 318.118293 
L 737.651645 318.71868 
L 737.427346 319.266452 
L 737.226921 319.765792 
L 737.047659 320.220658 
L 736.887244 320.634716 
L 736.743486 321.011387 
L 736.614684 321.353879 
L 736.499129 321.665136 
L 736.395392 321.947895 
L 736.302212 322.204649 
L 736.218514 322.437733 
L 736.143213 322.649202 
L 736.075467 322.841077 
L 736.014482 323.015089 
L 735.959613 323.172888 
L 735.910144 323.315931 
" clip-path="url(#pf4da069bd3)" style="fill: none; stroke-dasharray: 7.4,3.2; stroke-dashoffset: 0; stroke: #d62728; stroke-opacity: 0.3; stroke-width: 2"/>
   </g>
   <g id="line2d_18">
    <path d="M 811.050026 325.786755 
L 811.0311 325.720091 
L 811.010114 325.646473 
L 810.986897 325.565178 
L 810.960998 325.475459 
L 810.932425 325.376386 
L 810.900655 325.267049 
L 810.865466 325.146346 
L 810.826415 325.013151 
L 810.782991 324.866191 
L 810.734718 324.704096 
L 810.68108 324.525311 
L 810.621404 324.328134 
L 810.555015 324.110797 
L 810.481004 323.871285 
L 810.398592 323.607366 
L 810.306651 323.316686 
L 810.204082 322.996667 
L 810.089447 322.644459 
L 809.96137 322.257036 
L 809.818043 321.831093 
L 809.657487 321.363075 
L 809.477529 320.849143 
L 809.275668 320.285207 
L 809.048886 319.666933 
L 808.794073 318.989695 
L 808.507181 318.248656 
L 808.18408 317.438751 
L 807.819865 316.554685 
L 807.409031 315.591126 
L 806.94515 314.542637 
L 806.421195 313.403878 
L 805.82899 312.169698 
L 805.159703 310.835226 
L 804.40308 309.396222 
L 803.548075 307.849172 
L 802.582465 306.191668 
L 801.492965 304.422639 
L 800.265224 302.542842 
L 798.884274 300.555147 
L 797.334514 298.465006 
L 795.600167 296.280858 
L 793.665896 294.014495 
L 791.517262 291.681389 
L 789.141649 289.300874 
L 786.529052 286.896125 
L 783.672982 284.493955 
L 780.571645 282.124375 
L 777.228582 279.819775 
L 773.653451 277.613815 
L 769.862613 275.5402 
L 765.879044 273.631086 
L 761.732092 271.915554 
L 757.456681 270.418091 
L 753.092047 269.157308 
L 748.680306 268.145097 
L 744.264562 267.385927 
L 739.887268 266.877179 
L 735.588413 266.609358 
L 731.404158 266.567078 
L 727.365753 266.73029 
L 723.498804 267.075473 
L 719.82303 267.577071 
L 716.35229 268.208811 
L 713.094998 268.944706 
L 710.054645 269.760054 
L 707.230513 270.63203 
L 704.618416 271.540119 
L 702.211456 272.466456 
L 700.000722 273.395744 
L 697.975868 274.31534 
L 696.125702 275.214965 
L 694.438535 276.086595 
L 692.902622 276.924149 
L 691.50641 277.723294 
L 690.238673 278.48115 
L 689.088698 279.195995 
L 688.046368 279.867191 
L 687.102183 280.494779 
L 686.247355 281.079568 
L 685.473719 281.62273 
L 684.773788 282.125806 
L 684.140695 282.59067 
L 683.568114 283.019217 
L 683.050383 283.41357 
L 682.582254 283.775807 
L 682.158994 284.108042 
L 681.776321 284.412322 
L 681.430344 284.690692 
L 681.117506 284.945007 
L 680.834724 285.177234 
L 680.579032 285.389026 
L 680.347827 285.582033 
L 680.138741 285.757783 
L 679.949714 285.917785 
L 679.778763 286.063298 
L 679.624157 286.19558 
L 679.484331 286.31578 
L 679.357932 286.425023 
L 679.243553 286.52415 
" clip-path="url(#pf4da069bd3)" style="fill: none; stroke: #d62728; stroke-opacity: 0.8; stroke-width: 3; stroke-linecap: square"/>
   </g>
   <g id="line2d_19">
    <path d="M 854.141677 304.957298 
L 854.105132 304.906672 
L 854.064795 304.85069 
L 854.020313 304.78884 
L 853.971261 304.720437 
L 853.917206 304.644845 
L 853.857613 304.561261 
L 853.791964 304.468868 
L 853.719667 304.366712 
L 853.640048 304.253812 
L 853.552468 304.128915 
L 853.456086 303.990883 
L 853.350163 303.83822 
L 853.233754 303.669455 
L 853.105892 303.482835 
L 852.965634 303.276447 
L 852.811823 303.048231 
L 852.643325 302.795891 
L 852.458907 302.516821 
L 852.257294 302.208223 
L 852.037173 301.866949 
L 851.797142 301.489571 
L 851.53585 301.072241 
L 851.251856 300.610815 
L 850.943864 300.100635 
L 850.610566 299.536644 
L 850.250745 298.913304 
L 849.863518 298.224456 
L 849.448092 297.463508 
L 849.004096 296.62324 
L 848.53161 295.695841 
L 848.031357 294.672893 
L 847.504745 293.545438 
L 846.954095 292.303997 
L 846.382938 290.938596 
L 845.796073 289.439001 
L 845.199894 287.794806 
L 844.602638 285.995698 
L 844.014553 284.031782 
L 843.448155 281.894035 
L 842.918334 279.574758 
L 842.442434 277.068144 
L 842.040144 274.371047 
L 841.73337 271.483617 
L 841.545637 268.41011 
L 841.501611 265.159543 
L 841.626015 261.746339 
L 841.942586 258.190631 
L 842.472741 254.518349 
L 843.234137 250.760973 
L 844.2393 246.954698 
L 845.494436 243.13931 
L 846.998451 239.356656 
L 848.742631 235.648753 
L 850.710645 232.055884 
L 852.879195 228.614774 
L 855.219262 225.356915 
L 857.697464 222.307442 
L 860.277979 219.484411 
L 862.924348 216.898614 
L 865.600694 214.554009 
L 868.27376 212.448256 
L 870.9136 210.573802 
L 873.494162 208.919015 
L 875.994011 207.469204 
L 878.396007 206.207825 
L 880.687479 205.117294 
L 882.859458 204.179891 
L 884.906793 203.378236 
L 886.826769 202.695899 
L 888.619797 202.117488 
L 890.287543 201.629038 
L 891.833539 201.217927 
L 893.262631 200.872919 
L 894.580247 200.584149 
L 895.792182 200.343034 
L 896.904944 200.14211 
L 897.924973 199.974985 
L 898.858414 199.836218 
L 899.711299 199.721176 
L 900.489921 199.625915 
L 901.19974 199.547142 
L 901.84711 199.482029 
L 902.436406 199.428289 
L 902.972284 199.383978 
L 903.459637 199.347457 
L 903.902594 199.317377 
L 904.303476 199.292661 
L 904.670613 199.272243 
L 905.001669 199.25551 
L 905.302205 199.241752 
L 905.573959 199.230466 
L 905.822634 199.221155 
L 906.046099 199.213543 
L 906.25015 199.207273 
L 906.432696 199.202159 
L 906.599612 199.197944 
L 906.750828 199.194486 
L 906.890276 199.191626 
L 907.013914 199.189306 
" clip-path="url(#pf4da069bd3)" style="fill: none; stroke-dasharray: 7.4,3.2; stroke-dashoffset: 0; stroke: #2ca02c; stroke-opacity: 0.3; stroke-width: 2"/>
   </g>
   <g id="line2d_20">
    <path d="M 790.814356 329.740883 
L 790.808076 329.678757 
L 790.801126 329.610111 
L 790.79352 329.534291 
L 790.785243 329.450542 
L 790.776219 329.358038 
L 790.766382 329.255882 
L 790.755735 329.143037 
L 790.744191 329.0184 
L 790.73169 328.880808 
L 790.718304 328.728877 
L 790.70384 328.56115 
L 790.688452 328.375977 
L 790.672024 328.171595 
L 790.654625 327.946046 
L 790.636324 327.697198 
L 790.617213 327.422659 
L 790.597476 327.119858 
L 790.57728 326.785971 
L 790.556996 326.417914 
L 790.537 326.012288 
L 790.517817 325.565453 
L 790.5002 325.073397 
L 790.484972 324.531792 
L 790.47334 323.935983 
L 790.466691 323.28088 
L 790.466745 322.561159 
L 790.475809 321.770989 
L 790.496518 320.904275 
L 790.532127 319.954568 
L 790.586655 318.915188 
L 790.664901 317.779151 
L 790.772584 316.539441 
L 790.916415 315.189001 
L 791.104479 313.720948 
L 791.346023 312.128834 
L 791.651823 310.406836 
L 792.034131 308.55011 
L 792.506778 306.555296 
L 793.08514 304.420743 
L 793.785966 302.147277 
L 794.627125 299.738532 
L 795.627289 297.201634 
L 796.80531 294.547667 
L 798.179488 291.792055 
L 799.766639 288.954975 
L 801.580975 286.061253 
L 803.632987 283.140212 
L 805.928267 280.224999 
L 808.466337 277.351712 
L 811.239973 274.557959 
L 814.234656 271.881306 
L 817.428486 269.357434 
L 820.792936 267.018389 
L 824.293728 264.890876 
L 827.892313 262.995072 
L 831.54779 261.343707 
L 835.218715 259.94189 
L 838.865019 258.787337 
L 842.449741 257.87115 
L 845.939831 257.178833 
L 849.307652 256.69174 
L 852.531054 256.388325 
L 855.593266 256.245522 
L 858.483111 256.239875 
L 861.193973 256.348492 
L 863.723713 256.549798 
L 866.073408 256.823975 
L 868.247299 257.153383 
L 870.251198 257.522463 
L 872.093207 257.918059 
L 873.78175 258.328911 
L 875.326189 258.745879 
L 876.736324 259.161643 
L 878.021783 259.570364 
L 879.191919 259.967506 
L 880.256045 260.349907 
L 881.222987 260.715175 
L 882.100752 261.061723 
L 882.896884 261.388551 
L 883.61884 261.695352 
L 884.272936 261.982039 
L 884.866126 262.249345 
L 885.403349 262.497434 
L 885.889592 262.726999 
L 886.329915 262.939039 
L 886.728555 263.134481 
L 887.088101 263.313514 
L 887.416246 263.479416 
L 887.711323 263.630427 
L 887.978468 263.768802 
L 888.219458 263.894897 
L 888.439469 264.01118 
L 888.636795 264.116317 
L 888.816659 264.212903 
L 888.977298 264.299767 
L 889.123967 264.379556 
L 889.256643 264.452186 
L 889.378841 264.519433 
L 889.487069 264.57925 
" clip-path="url(#pf4da069bd3)" style="fill: none; stroke: #2ca02c; stroke-opacity: 0.8; stroke-width: 3; stroke-linecap: square"/>
   </g>
   <g id="text_3">
    <!-- c)  Fiber rotation -->
    <g style="fill: #373737" transform="translate(677.16 27.64875) scale(0.24 -0.24)">
     <defs>
      <path id="DejaVuSans-46" d="M 628 4666 
L 3309 4666 
L 3309 4134 
L 1259 4134 
L 1259 2759 
L 3109 2759 
L 3109 2228 
L 1259 2228 
L 1259 0 
L 628 0 
L 628 4666 
z
" transform="scale(0.015625)"/>
     </defs>
     <use xlink:href="#DejaVuSans-63"/>
     <use xlink:href="#DejaVuSans-29" transform="translate(54.980469 0)"/>
     <use xlink:href="#DejaVuSans-20" transform="translate(93.994141 0)"/>
     <use xlink:href="#DejaVuSans-20" transform="translate(125.78125 0)"/>
     <use xlink:href="#DejaVuSans-46" transform="translate(157.568359 0)"/>
     <use xlink:href="#DejaVuSans-69" transform="translate(207.837891 0)"/>
     <use xlink:href="#DejaVuSans-62" transform="translate(235.621094 0)"/>
     <use xlink:href="#DejaVuSans-65" transform="translate(299.097656 0)"/>
     <use xlink:href="#DejaVuSans-72" transform="translate(360.621094 0)"/>
     <use xlink:href="#DejaVuSans-20" transform="translate(401.734375 0)"/>
     <use xlink:href="#DejaVuSans-72" transform="translate(433.521484 0)"/>
     <use xlink:href="#DejaVuSans-6f" transform="translate(472.384766 0)"/>
     <use xlink:href="#DejaVuSans-74" transform="translate(533.566406 0)"/>
     <use xlink:href="#DejaVuSans-61" transform="translate(572.775391 0)"/>
     <use xlink:href="#DejaVuSans-74" transform="translate(634.054688 0)"/>
     <use xlink:href="#DejaVuSans-69" transform="translate(673.263672 0)"/>
     <use xlink:href="#DejaVuSans-6f" transform="translate(701.046875 0)"/>
     <use xlink:href="#DejaVuSans-6e" transform="translate(762.228516 0)"/>
    </g>
   </g>
  </g>
  <g id="axes_4">
   <g id="patch_6">
    <path d="M 1007.7975 317.50875 
L 1240.0635 317.50875 
L 1240.0635 75.21375 
L 1007.7975 75.21375 
z
" style="fill: #ffffff"/>
   </g>
   <g id="PathCollection_3">
    <g clip-path="url(#pe56fa5c49c)">
     <use xlink:href="#mfc1ff6564c" x="1123.9305" y="196.36125" style="fill: #0000ff; fill-opacity: 0.4; stroke: #0000ff; stroke-opacity: 0.4"/>
    </g>
   </g>
   <g id="PathCollection_4">
    <g clip-path="url(#pe56fa5c49c)">
     <use xlink:href="#me2cddc8489" x="1142.594732" y="215.398714" style="fill: #0000ff; stroke: #0000ff"/>
    </g>
   </g>
   <g id="patch_7">
    <path d="M 1125.474499 197.65044 
Q 1131.30549 203.598034 1137.13648 209.545628 
L 1138.42181 208.285498 
Q 1139.807592 211.127415 1141.193373 213.969333 
Q 1138.379448 212.52756 1135.565522 211.085788 
L 1136.850852 209.825657 
Q 1131.019861 203.878063 1125.18887 197.930469 
L 1125.474499 197.65044 
z
" clip-path="url(#pe56fa5c49c)" style="fill: #1f77b4; stroke: #1f77b4; stroke-linecap: round"/>
   </g>
   <g id="matplotlib.axis_1">
    <g id="xtick_1">
     <g id="line2d_21">
      <defs>
       <path id="m51db60efd5" d="M 0 0 
L 0 6 
" style="stroke: #373737; stroke-width: 1.3"/>
      </defs>
      <g>
       <use xlink:href="#m51db60efd5" x="1040.978357" y="75.21375" style="fill: #373737; stroke: #373737; stroke-width: 1.3"/>
      </g>
     </g>
     <g id="text_4">
      <!-- 2 -->
      <g style="fill: #373737" transform="translate(1031.395935 69.010156) scale(0.13 -0.13)">
       <defs>
        <path id="DejaVuSans-2212" d="M 678 2272 
L 4684 2272 
L 4684 1741 
L 678 1741 
L 678 2272 
z
" transform="scale(0.015625)"/>
       </defs>
       <use xlink:href="#DejaVuSans-2212"/>
       <use xlink:href="#DejaVuSans-32" transform="translate(83.789062 0)"/>
      </g>
     </g>
    </g>
    <g id="xtick_2">
     <g id="line2d_22">
      <g>
       <use xlink:href="#m51db60efd5" x="1123.9305" y="75.21375" style="fill: #373737; stroke: #373737; stroke-width: 1.3"/>
      </g>
     </g>
     <g id="text_5">
      <!-- 0 -->
      <g style="fill: #373737" transform="translate(1119.794875 69.010156) scale(0.13 -0.13)">
       <defs>
        <path id="DejaVuSans-30" d="M 2034 4250 
Q 1547 4250 1301 3770 
Q 1056 3291 1056 2328 
Q 1056 1369 1301 889 
Q 1547 409 2034 409 
Q 2525 409 2770 889 
Q 3016 1369 3016 2328 
Q 3016 3291 2770 3770 
Q 2525 4250 2034 4250 
z
M 2034 4750 
Q 2819 4750 3233 4129 
Q 3647 3509 3647 2328 
Q 3647 1150 3233 529 
Q 2819 -91 2034 -91 
Q 1250 -91 836 529 
Q 422 1150 422 2328 
Q 422 3509 836 4129 
Q 1250 4750 2034 4750 
z
" transform="scale(0.015625)"/>
       </defs>
       <use xlink:href="#DejaVuSans-30"/>
      </g>
     </g>
    </g>
    <g id="xtick_3">
     <g id="line2d_23">
      <g>
       <use xlink:href="#m51db60efd5" x="1206.882643" y="75.21375" style="fill: #373737; stroke: #373737; stroke-width: 1.3"/>
      </g>
     </g>
     <g id="text_6">
      <!-- 2 -->
      <g style="fill: #373737" transform="translate(1202.747018 69.010156) scale(0.13 -0.13)">
       <use xlink:href="#DejaVuSans-32"/>
      </g>
     </g>
    </g>
    <g id="text_7">
     <!-- $\Upsilon_1$ -->
     <g style="fill: #373737" transform="translate(1218.0635 55.132187) scale(0.2 -0.2)">
      <defs>
       <path id="DejaVuSans-3a5" d="M -13 4666 
L 666 4666 
L 1959 2747 
L 3244 4666 
L 3922 4666 
L 2272 2222 
L 2272 0 
L 1638 0 
L 1638 2222 
L -13 4666 
z
" transform="scale(0.015625)"/>
      </defs>
      <use xlink:href="#DejaVuSans-3a5" transform="translate(0 0.09375)"/>
      <use xlink:href="#DejaVuSans-31" transform="translate(62.041016 -16.3125) scale(0.7)"/>
     </g>
    </g>
   </g>
   <g id="matplotlib.axis_2">
    <g id="ytick_1">
     <g id="line2d_24">
      <defs>
       <path id="mf0bbbf22cb" d="M 0 0 
L -6 0 
" style="stroke: #373737; stroke-width: 1.3"/>
      </defs>
      <g>
       <use xlink:href="#mf0bbbf22cb" x="1240.0635" y="282.895179" style="fill: #373737; stroke: #373737; stroke-width: 1.3"/>
      </g>
     </g>
     <g id="text_8">
      <!-- 2 -->
      <g style="fill: #373737" transform="translate(1243.5635 287.834163) scale(0.13 -0.13)">
       <use xlink:href="#DejaVuSans-2212"/>
       <use xlink:href="#DejaVuSans-32" transform="translate(83.789062 0)"/>
      </g>
     </g>
    </g>
    <g id="ytick_2">
     <g id="line2d_25">
      <g>
       <use xlink:href="#mf0bbbf22cb" x="1240.0635" y="196.36125" style="fill: #373737; stroke: #373737; stroke-width: 1.3"/>
      </g>
     </g>
     <g id="text_9">
      <!-- 0 -->
      <g style="fill: #373737" transform="translate(1243.5635 201.300234) scale(0.13 -0.13)">
       <use xlink:href="#DejaVuSans-30"/>
      </g>
     </g>
    </g>
    <g id="ytick_3">
     <g id="line2d_26">
      <g>
       <use xlink:href="#mf0bbbf22cb" x="1240.0635" y="109.827321" style="fill: #373737; stroke: #373737; stroke-width: 1.3"/>
      </g>
     </g>
     <g id="text_10">
      <!-- 2 -->
      <g style="fill: #373737" transform="translate(1243.5635 114.766306) scale(0.13 -0.13)">
       <use xlink:href="#DejaVuSans-32"/>
      </g>
     </g>
    </g>
    <g id="text_11">
     <!-- $\Upsilon_2$ -->
     <g style="fill: #373737" transform="translate(1244.728344 90.410625) scale(0.2 -0.2)">
      <use xlink:href="#DejaVuSans-3a5" transform="translate(0 0.09375)"/>
      <use xlink:href="#DejaVuSans-32" transform="translate(62.041016 -16.3125) scale(0.7)"/>
     </g>
    </g>
   </g>
   <g id="line2d_27">
    <path d="M 916.550143 196.36125 
L 920.697746 196.36125 
L 924.845349 196.36125 
L 928.992972 196.36125 
L 933.140575 196.36125 
L 937.288179 196.36125 
L 941.435782 196.36125 
L 945.583385 196.36125 
L 949.731008 196.36125 
L 953.878611 196.36125 
L 958.026224 196.36125 
L 962.173827 196.36125 
L 966.32144 196.36125 
L 970.469044 196.36125 
L 974.616647 196.36125 
L 978.76426 196.36125 
L 982.911853 196.36125 
L 987.059456 196.36125 
L 991.207069 196.36125 
L 995.354673 196.36125 
L 999.502286 196.36125 
L 1003.649889 196.36125 
L 1007.797492 196.36125 
L 1011.945105 196.36125 
L 1016.092718 196.36125 
L 1020.240321 196.36125 
L 1024.387935 196.36125 
L 1028.535538 196.36125 
L 1032.683151 196.36125 
L 1036.830754 196.36125 
L 1040.978362 196.36125 
L 1045.12597 196.36125 
L 1049.273573 196.36125 
L 1053.421182 196.36125 
L 1057.56879 196.36125 
L 1061.716393 196.36125 
L 1065.864001 196.36125 
L 1070.011609 196.36125 
L 1074.159217 196.36125 
L 1078.306825 196.36125 
L 1082.454429 196.36125 
L 1086.602037 196.36125 
L 1090.749645 196.36125 
L 1094.89725 196.36125 
L 1099.044856 196.36125 
L 1103.192466 196.36125 
L 1107.340074 196.36125 
L 1111.487677 196.36125 
L 1115.635286 196.36125 
L 1119.782896 196.36125 
L 1123.9305 196.36125 
L 1128.078109 196.36125 
L 1132.225716 196.36125 
L 1136.373326 196.36125 
L 1140.520933 196.36125 
L 1144.668536 196.36125 
L 1148.816149 196.36125 
L 1152.963745 196.36125 
L 1157.111358 196.36125 
L 1161.258958 196.36125 
L 1165.406576 196.36125 
L 1169.554194 196.36125 
L 1173.701788 196.36125 
L 1177.849401 196.36125 
L 1181.997004 196.36125 
L 1186.144592 196.36125 
L 1190.292181 196.36125 
L 1194.439833 196.36125 
L 1198.587412 196.36125 
L 1202.73505 196.36125 
L 1206.882588 196.36125 
L 1211.030206 196.36125 
L 1215.177691 196.36125 
L 1219.325472 196.36125 
L 1223.472927 196.36125 
L 1227.620847 196.36125 
L 1231.768539 196.36125 
L 1235.915944 196.36125 
L 1240.063478 196.36125 
L 1244.211121 196.36125 
L 1248.358329 196.36125 
L 1252.505882 196.36125 
L 1256.654178 196.36125 
L 1260.802384 196.36125 
L 1264.949612 196.36125 
L 1269.097066 196.36125 
L 1273.24289 196.36125 
L 1277.21425 196.36125 
" clip-path="url(#pe56fa5c49c)" style="fill: none; stroke-dasharray: 7.4,3.2; stroke-dashoffset: 0; stroke: #1f77b4; stroke-opacity: 0.3; stroke-width: 2"/>
   </g>
   <g id="line2d_28">
    <path d="M 1051.178871 368.90875 
L 1051.347385 368.17459 
L 1055.494988 351.824401 
L 1059.642591 337.030122 
L 1063.790204 323.643711 
L 1067.937808 311.531191 
L 1072.085411 300.57132 
L 1076.233024 290.654423 
L 1080.380627 281.681243 
L 1084.528233 273.561977 
L 1088.675841 266.215353 
L 1092.823449 259.567852 
L 1096.971057 253.552947 
L 1101.11866 248.110442 
L 1105.266268 243.185854 
L 1109.413876 238.729904 
L 1113.561482 234.697995 
L 1117.709088 231.049773 
L 1121.856697 227.748722 
L 1126.004305 224.761808 
L 1130.151908 222.059141 
L 1134.299517 219.613662 
L 1138.447127 217.4009 
L 1142.594732 215.398714 
L 1146.742342 213.587059 
L 1150.889948 211.947806 
L 1155.037559 210.464549 
L 1159.185164 209.122443 
L 1163.332767 207.908055 
L 1167.480383 206.809231 
L 1171.627976 205.814976 
L 1175.775589 204.915334 
L 1179.923192 204.101306 
L 1184.070806 203.364741 
L 1188.218429 202.698269 
L 1192.366022 202.095224 
L 1196.513635 201.549563 
L 1200.661238 201.05583 
L 1204.808821 200.609084 
L 1208.956415 200.204851 
L 1213.104067 199.83908 
L 1217.251641 199.508123 
L 1221.399284 199.208656 
L 1225.546818 198.937694 
L 1229.694441 198.692512 
L 1233.841925 198.47067 
L 1237.989706 198.269924 
L 1242.137161 198.088296 
L 1246.285081 197.923934 
L 1250.432773 197.775222 
L 1254.580178 197.640671 
L 1258.727712 197.51892 
L 1262.875355 197.408752 
L 1267.022563 197.309078 
L 1271.170116 197.218882 
L 1275.318412 197.137254 
L 1277.21425 197.1035 
" clip-path="url(#pe56fa5c49c)" style="fill: none; stroke: #1f77b4; stroke-opacity: 0.8; stroke-width: 3; stroke-linecap: square"/>
   </g>
   <g id="line2d_29">
    <path d="M 1099.999378 -1 
L 1101.228484 5.709731 
L 1104.65456 23.166923 
L 1107.937614 38.890777 
L 1111.053103 53.038606 
L 1113.973982 65.752023 
L 1116.670866 77.158252 
L 1119.112735 87.371465 
L 1121.267829 96.493841 
L 1123.10491 104.616722 
L 1124.594601 111.821398 
L 1125.711128 118.179964 
L 1126.434001 123.756077 
L 1126.749295 128.605546 
L 1126.650795 132.776874 
L 1126.14048 136.311825 
L 1125.228273 139.245791 
L 1123.9314 141.608111 
L 1122.273104 143.422468 
L 1120.281015 144.706983 
L 1117.985608 145.474519 
L 1115.418564 145.732761 
L 1112.61142 145.484308 
L 1109.594487 144.726665 
L 1106.396105 143.452234 
L 1103.042171 141.64828 
L 1099.55587 139.296735 
L 1095.957644 136.374064 
L 1092.265333 132.851028 
L 1088.494238 128.692362 
L 1084.65746 123.856438 
L 1080.766077 118.294864 
L 1076.829449 111.951963 
L 1072.855367 104.764298 
L 1068.850373 96.659871 
L 1064.819901 87.557611 
L 1060.768436 77.366401 
L 1056.699714 65.984249 
L 1052.616803 53.297239 
L 1048.522242 39.178418 
L 1044.41811 23.48645 
L 1040.306136 6.0643 
L 1038.800773 -1 
" clip-path="url(#pe56fa5c49c)" style="fill: none; stroke-dasharray: 7.4,3.2; stroke-dashoffset: 0; stroke: #ff7f0e; stroke-opacity: 0.3; stroke-width: 2"/>
   </g>
   <g id="line2d_30">
    <path d="M 1111.76205 -1 
L 1112.69568 4.022545 
L 1116.34532 22.192445 
L 1119.892715 38.619217 
L 1123.318792 53.46721 
L 1126.601845 66.885104 
L 1129.717335 79.007167 
L 1132.638214 89.9547 
L 1135.335097 99.837276 
L 1137.776966 108.753834 
L 1139.93206 116.793551 
L 1141.769142 124.036931 
L 1143.258832 130.556467 
L 1144.375359 136.417416 
L 1145.098233 141.678432 
L 1145.413528 146.392173 
L 1145.315027 150.60579 
L 1144.804713 154.361463 
L 1143.892505 157.696803 
L 1142.595632 160.645162 
L 1140.937336 163.236079 
L 1138.945247 165.495464 
L 1136.649839 167.445926 
L 1134.082795 169.106988 
L 1131.275652 170.495294 
L 1128.258718 171.624728 
L 1125.060337 172.506582 
L 1121.706403 173.149695 
L 1118.220102 173.560493 
L 1114.621876 173.743101 
L 1110.929564 173.699324 
L 1107.15847 173.428754 
L 1103.321692 172.928657 
L 1099.430309 172.194059 
L 1095.49368 171.217544 
L 1091.519599 169.98944 
L 1087.514605 168.497364 
L 1083.484133 166.726415 
L 1079.43267 164.65888 
L 1075.363948 162.274047 
L 1071.281037 159.548065 
L 1067.186477 156.453649 
L 1063.082344 152.959842 
L 1058.97037 149.031653 
L 1054.851948 144.62976 
L 1050.728265 139.710104 
L 1046.600252 134.223458 
L 1042.468708 128.114902 
L 1038.334237 121.323369 
L 1034.197382 113.780835 
L 1030.05861 105.41177 
L 1025.918215 96.132515 
L 1021.776516 85.85 
L 1017.633748 74.461607 
L 1013.4901 61.853079 
L 1009.345751 47.898442 
L 1005.200798 32.457938 
L 1001.05536 15.376917 
L 997.461515 -1 
" clip-path="url(#pe56fa5c49c)" style="fill: none; stroke: #ff7f0e; stroke-opacity: 0.8; stroke-width: 3; stroke-linecap: square"/>
   </g>
   <g id="line2d_31">
    <path d="M 1099.803991 368.90875 
L 1099.855183 368.64256 
L 1102.898027 353.619778 
L 1105.734955 340.170968 
L 1108.335953 328.16145 
L 1110.669537 317.471075 
L 1112.704017 307.992779 
L 1114.408686 299.631699 
L 1115.755367 292.304226 
L 1116.720202 285.936964 
L 1117.285072 280.466204 
L 1117.438955 275.837202 
L 1117.17885 272.003623 
L 1116.509889 268.927095 
L 1115.444962 266.576834 
L 1114.003819 264.929301 
L 1112.211609 263.968027 
L 1110.097274 263.683388 
L 1107.691935 264.072535 
L 1105.027363 265.139338 
L 1102.134728 266.894535 
L 1099.043647 269.355617 
L 1095.781557 272.547263 
L 1092.373287 276.501406 
L 1088.840962 281.257611 
L 1085.203999 286.863495 
L 1081.479193 293.375186 
L 1077.681001 300.857755 
L 1073.821663 309.386227 
L 1069.911585 319.045852 
L 1065.959461 329.933348 
L 1061.972588 342.157711 
L 1057.957048 355.841212 
L 1054.502652 368.90875 
" clip-path="url(#pe56fa5c49c)" style="fill: none; stroke-dasharray: 7.4,3.2; stroke-dashoffset: 0; stroke: #d62728; stroke-opacity: 0.3; stroke-width: 2"/>
   </g>
   <g id="line2d_32">
    <path d="M 1124.546803 368.90875 
L 1127.000184 355.88821 
L 1129.333768 343.680899 
L 1131.368249 332.947983 
L 1133.072917 323.582034 
L 1134.419598 315.489408 
L 1135.384433 308.589034 
L 1135.949303 302.811869 
L 1136.103187 298.100104 
L 1135.843082 294.406586 
L 1135.174121 291.694323 
L 1134.109193 289.936186 
L 1132.668051 289.114576 
L 1130.87584 289.22127 
L 1128.761505 290.257353 
L 1126.356166 292.233171 
L 1123.691595 295.168499 
L 1120.79896 299.092758 
L 1117.707879 304.045146 
L 1114.445788 310.075282 
L 1111.037519 317.243522 
L 1107.505193 325.621582 
L 1103.868231 335.293328 
L 1100.143425 346.355581 
L 1096.345233 358.918947 
L 1093.628322 368.90875 
" clip-path="url(#pe56fa5c49c)" style="fill: none; stroke: #d62728; stroke-opacity: 0.8; stroke-width: 3; stroke-linecap: square"/>
   </g>
   <g id="line2d_33">
    <path d="M 1094.859308 368.90875 
L 1094.89725 368.7429 
L 1099.044859 352.338605 
L 1103.192459 337.495419 
L 1107.340074 324.064724 
L 1111.487681 311.912127 
L 1115.635289 300.916018 
L 1119.782882 290.966317 
L 1123.9305 281.963449 
L 1128.078104 273.817326 
L 1132.22571 266.446408 
L 1136.373326 259.776919 
L 1140.52093 253.742125 
L 1144.668536 248.281609 
L 1148.816149 243.340734 
L 1152.963745 238.870045 
L 1157.111353 234.824797 
L 1161.258971 231.164506 
L 1165.406576 227.852541 
L 1169.554194 224.855747 
L 1173.701788 222.144137 
L 1177.849361 219.690571 
L 1181.997024 217.470492 
L 1186.144592 215.461683 
L 1190.292181 213.644037 
L 1194.439833 211.99936 
L 1198.587412 210.511197 
L 1202.73505 209.164653 
L 1206.882588 207.946249 
L 1211.030206 206.84379 
L 1215.177691 205.846245 
L 1219.325472 204.943628 
L 1223.472927 204.126906 
L 1227.620847 203.387907 
L 1231.768539 202.719232 
L 1235.915944 202.11419 
L 1240.063478 201.566726 
L 1244.211121 201.071358 
L 1248.358329 200.623133 
L 1252.505882 200.21756 
L 1256.654178 199.850584 
L 1260.802384 199.51853 
L 1264.949612 199.218075 
L 1269.097066 198.946212 
L 1273.24289 198.700221 
L 1277.21425 198.487212 
" clip-path="url(#pe56fa5c49c)" style="fill: none; stroke-dasharray: 7.4,3.2; stroke-dashoffset: 0; stroke: #2ca02c; stroke-opacity: 0.3; stroke-width: 2"/>
   </g>
   <g id="line2d_34">
    <path d="M 1121.85078 368.90875 
L 1121.856691 368.882894 
L 1126.004305 352.465282 
L 1130.151912 337.610016 
L 1134.29952 324.168427 
L 1138.447114 312.005979 
L 1142.594732 301.000915 
L 1146.742335 291.043138 
L 1150.88994 282.032966 
L 1155.037559 273.88022 
L 1159.185162 266.50332 
L 1163.332767 259.828414 
L 1167.480383 253.788716 
L 1171.627976 248.323769 
L 1175.775584 243.378881 
L 1179.923202 238.904561 
L 1184.070806 234.85603 
L 1188.218429 231.192766 
L 1192.366022 227.878111 
L 1196.513595 224.878888 
L 1200.661258 222.16507 
L 1204.808821 219.709518 
L 1208.956415 217.487638 
L 1213.104067 215.47719 
L 1217.251641 213.65807 
L 1221.399284 212.01206 
L 1225.546818 210.522693 
L 1229.694441 209.175052 
L 1233.841925 207.955665 
L 1237.989706 206.852302 
L 1242.137161 205.853952 
L 1246.285081 204.950591 
L 1250.432773 204.133204 
L 1254.580178 203.39361 
L 1258.727712 202.724396 
L 1262.875355 202.118861 
L 1267.022563 201.570961 
L 1271.170116 201.075192 
L 1275.318412 200.626589 
L 1277.21425 200.441077 
" clip-path="url(#pe56fa5c49c)" style="fill: none; stroke: #2ca02c; stroke-opacity: 0.8; stroke-width: 3; stroke-linecap: square"/>
   </g>
   <g id="patch_8">
    <path d="M 1007.7975 317.50875 
L 1007.7975 75.21375 
" style="fill: none; stroke: #373737; stroke-width: 1.5; stroke-linejoin: miter; stroke-linecap: square"/>
   </g>
   <g id="patch_9">
    <path d="M 1240.0635 317.50875 
L 1240.0635 75.21375 
" style="fill: none; stroke: #373737; stroke-width: 1.5; stroke-linejoin: miter; stroke-linecap: square"/>
   </g>
   <g id="patch_10">
    <path d="M 1007.7975 317.50875 
L 1240.0635 317.50875 
" style="fill: none; stroke: #373737; stroke-width: 1.5; stroke-linejoin: miter; stroke-linecap: square"/>
   </g>
   <g id="patch_11">
    <path d="M 1007.7975 75.21375 
L 1240.0635 75.21375 
" style="fill: none; stroke: #373737; stroke-width: 1.5; stroke-linejoin: miter; stroke-linecap: square"/>
   </g>
   <g id="text_12">
    <!-- d)  Solvable coordinates -->
    <g style="fill: #373737" transform="translate(978.84675 29.935313) scale(0.24 -0.24)">
     <defs>
      <path id="DejaVuSans-53" d="M 3425 4513 
L 3425 3897 
Q 3066 4069 2747 4153 
Q 2428 4238 2131 4238 
Q 1616 4238 1336 4038 
Q 1056 3838 1056 3469 
Q 1056 3159 1242 3001 
Q 1428 2844 1947 2747 
L 2328 2669 
Q 3034 2534 3370 2195 
Q 3706 1856 3706 1288 
Q 3706 609 3251 259 
Q 2797 -91 1919 -91 
Q 1588 -91 1214 -16 
Q 841 59 441 206 
L 441 856 
Q 825 641 1194 531 
Q 1563 422 1919 422 
Q 2459 422 2753 634 
Q 3047 847 3047 1241 
Q 3047 1584 2836 1778 
Q 2625 1972 2144 2069 
L 1759 2144 
Q 1053 2284 737 2584 
Q 422 2884 422 3419 
Q 422 4038 858 4394 
Q 1294 4750 2059 4750 
Q 2388 4750 2728 4690 
Q 3069 4631 3425 4513 
z
" transform="scale(0.015625)"/>
      <path id="DejaVuSans-6c" d="M 603 4863 
L 1178 4863 
L 1178 0 
L 603 0 
L 603 4863 
z
" transform="scale(0.015625)"/>
      <path id="DejaVuSans-76" d="M 191 3500 
L 800 3500 
L 1894 563 
L 2988 3500 
L 3597 3500 
L 2284 0 
L 1503 0 
L 191 3500 
z
" transform="scale(0.015625)"/>
     </defs>
     <use xlink:href="#DejaVuSans-64"/>
     <use xlink:href="#DejaVuSans-29" transform="translate(63.476562 0)"/>
     <use xlink:href="#DejaVuSans-20" transform="translate(102.490234 0)"/>
     <use xlink:href="#DejaVuSans-20" transform="translate(134.277344 0)"/>
     <use xlink:href="#DejaVuSans-53" transform="translate(166.064453 0)"/>
     <use xlink:href="#DejaVuSans-6f" transform="translate(229.541016 0)"/>
     <use xlink:href="#DejaVuSans-6c" transform="translate(290.722656 0)"/>
     <use xlink:href="#DejaVuSans-76" transform="translate(318.505859 0)"/>
     <use xlink:href="#DejaVuSans-61" transform="translate(377.685547 0)"/>
     <use xlink:href="#DejaVuSans-62" transform="translate(438.964844 0)"/>
     <use xlink:href="#DejaVuSans-6c" transform="translate(502.441406 0)"/>
     <use xlink:href="#DejaVuSans-65" transform="translate(530.224609 0)"/>
     <use xlink:href="#DejaVuSans-20" transform="translate(591.748047 0)"/>
     <use xlink:href="#DejaVuSans-63" transform="translate(623.535156 0)"/>
     <use xlink:href="#DejaVuSans-6f" transform="translate(678.515625 0)"/>
     <use xlink:href="#DejaVuSans-6f" transform="translate(739.697266 0)"/>
     <use xlink:href="#DejaVuSans-72" transform="translate(800.878906 0)"/>
     <use xlink:href="#DejaVuSans-64" transform="translate(840.242188 0)"/>
     <use xlink:href="#DejaVuSans-69" transform="translate(903.71875 0)"/>
     <use xlink:href="#DejaVuSans-6e" transform="translate(931.501953 0)"/>
     <use xlink:href="#DejaVuSans-61" transform="translate(994.880859 0)"/>
     <use xlink:href="#DejaVuSans-74" transform="translate(1056.160156 0)"/>
     <use xlink:href="#DejaVuSans-65" transform="translate(1095.369141 0)"/>
     <use xlink:href="#DejaVuSans-73" transform="translate(1156.892578 0)"/>
    </g>
   </g>
  </g>
 </g>
 <defs>
  <clipPath id="pbbcd2d30d9">
   <rect x="7.2" y="37.64875" width="290.3325" height="323.06"/>
  </clipPath>
  <clipPath id="p51cd2e8f99">
   <rect x="319.1325" y="37.64875" width="290.3325" height="323.06"/>
  </clipPath>
  <clipPath id="pf4da069bd3">
   <rect x="631.065" y="37.64875" width="290.3325" height="323.06"/>
  </clipPath>
  <clipPath id="pe56fa5c49c">
   <rect x="1007.7975" y="75.21375" width="232.266" height="242.295"/>
  </clipPath>
 </defs>
</svg>
